M48
; DRILL file {KiCad 9.0.3-1.fc42} date 2025-07-31T15:34:22-0300
; FORMAT={-:-/ absolute / metric / decimal}
; #@! TF.CreationDate,2025-07-31T15:34:22-03:00
; #@! TF.GenerationSoftware,Kicad,Pcbnew,9.0.3-1.fc42
; #@! TF.FileFunction,NonPlated,1,2,NPTH
FMAT,2
METRIC
; #@! TA.AperFunction,NonPlated,NPTH,ComponentDrill
T1C1.500
; #@! TA.AperFunction,NonPlated,NPTH,ComponentDrill
T2C1.702
; #@! TA.AperFunction,NonPlated,NPTH,ComponentDrill
T3C3.000
; #@! TA.AperFunction,NonPlated,NPTH,ComponentDrill
T4C3.988
%
G90
G05
T1
X268.15Y-115.6
X275.15Y-115.6
T2
X144.92Y-92.85
X144.92Y-111.9
X144.92Y-130.95
X144.92Y-150.0
X155.08Y-92.85
X155.08Y-111.9
X155.08Y-130.95
X155.08Y-150.0
X163.97Y-92.85
X163.97Y-111.9
X163.97Y-130.95
X163.97Y-150.0
X174.13Y-92.85
X174.13Y-111.9
X174.13Y-130.95
X174.13Y-150.0
X183.02Y-84.85
X183.02Y-103.9
X183.02Y-122.95
X183.02Y-142.0
X193.18Y-84.85
X193.18Y-103.9
X193.18Y-122.95
X193.18Y-142.0
X202.07Y-76.85
X202.07Y-95.9
X202.07Y-114.95
X202.07Y-134.0
X212.23Y-76.85
X212.23Y-95.9
X212.23Y-114.95
X212.23Y-134.0
X221.12Y-84.85
X221.12Y-103.9
X221.12Y-122.95
X221.12Y-142.0
X231.28Y-84.85
X231.28Y-103.9
X231.28Y-122.95
X231.28Y-142.0
X240.17Y-92.85
X240.17Y-111.9
X240.17Y-130.95
X240.17Y-150.0
X241.658Y-171.408
X248.393Y-191.613
X248.842Y-178.592
X250.33Y-92.85
X250.33Y-111.9
X250.33Y-130.95
X250.33Y-150.0
X255.577Y-198.798
T3
X146.19Y-90.31
X146.19Y-109.36
X146.19Y-128.41
X146.19Y-147.46
X147.46Y-87.77
X147.46Y-106.82
X147.46Y-125.87
X147.46Y-144.92
X152.54Y-87.77
X152.54Y-106.82
X152.54Y-125.87
X152.54Y-144.92
X153.81Y-90.31
X153.81Y-109.36
X153.81Y-128.41
X153.81Y-147.46
X165.24Y-90.31
X165.24Y-109.36
X165.24Y-128.41
X165.24Y-147.46
X166.51Y-87.77
X166.51Y-106.82
X166.51Y-125.87
X166.51Y-144.92
X171.59Y-87.77
X171.59Y-106.82
X171.59Y-125.87
X171.59Y-144.92
X172.86Y-90.31
X172.86Y-109.36
X172.86Y-128.41
X172.86Y-147.46
X184.29Y-82.31
X184.29Y-101.36
X184.29Y-120.41
X184.29Y-139.46
X185.56Y-79.77
X185.56Y-98.82
X185.56Y-117.87
X185.56Y-136.92
X190.64Y-79.77
X190.64Y-98.82
X190.64Y-117.87
X190.64Y-136.92
X191.91Y-82.31
X191.91Y-101.36
X191.91Y-120.41
X191.91Y-139.46
X203.34Y-74.31
X203.34Y-93.36
X203.34Y-112.41
X203.34Y-131.46
X204.61Y-71.77
X204.61Y-90.82
X204.61Y-109.87
X204.61Y-128.92
X209.69Y-71.77
X209.69Y-90.82
X209.69Y-109.87
X209.69Y-128.92
X210.96Y-74.31
X210.96Y-93.36
X210.96Y-112.41
X210.96Y-131.46
X222.39Y-82.31
X222.39Y-101.36
X222.39Y-120.41
X222.39Y-139.46
X223.66Y-79.77
X223.66Y-98.82
X223.66Y-117.87
X223.66Y-136.92
X228.74Y-79.77
X228.74Y-98.82
X228.74Y-117.87
X228.74Y-136.92
X230.01Y-82.31
X230.01Y-101.36
X230.01Y-120.41
X230.01Y-139.46
X241.44Y-90.31
X241.44Y-109.36
X241.44Y-128.41
X241.44Y-147.46
X242.71Y-87.77
X242.71Y-106.82
X242.71Y-125.87
X242.71Y-144.92
X244.352Y-170.51
X247.046Y-169.612
X247.79Y-87.77
X247.79Y-106.82
X247.79Y-125.87
X247.79Y-144.92
X249.06Y-90.31
X249.06Y-109.36
X249.06Y-128.41
X249.06Y-147.46
X249.74Y-175.898
X250.638Y-173.204
X251.087Y-190.715
X253.781Y-189.817
X256.475Y-196.104
X257.373Y-193.41
T4
X150.0Y-92.85
X150.0Y-111.9
X150.0Y-130.95
X150.0Y-150.0
X169.05Y-92.85
X169.05Y-111.9
X169.05Y-130.95
X169.05Y-150.0
X188.1Y-84.85
X188.1Y-103.9
X188.1Y-122.95
X188.1Y-142.0
X207.15Y-76.85
X207.15Y-95.9
X207.15Y-114.95
X207.15Y-134.0
X226.2Y-84.85
X226.2Y-103.9
X226.2Y-122.95
X226.2Y-142.0
X245.25Y-92.85
X245.25Y-111.9
X245.25Y-130.95
X245.25Y-150.0
X245.25Y-175.0
X251.985Y-195.206
M30
