%TF.GenerationSoftware,KiCad,Pcbnew,9.0.3-1.fc42*%
%TF.CreationDate,2025-07-31T15:34:24-03:00*%
%TF.ProjectId,main_pcb,6d61696e-5f70-4636-922e-6b696361645f,v1.0.0*%
%TF.SameCoordinates,Original*%
%TF.FileFunction,Copper,L1,Top*%
%TF.FilePolarity,Positive*%
%FSLAX46Y46*%
G04 Gerber Fmt 4.6, Leading zero omitted, Abs format (unit mm)*
G04 Created by KiCad (PCBNEW 9.0.3-1.fc42) date 2025-07-31 15:34:24*
%MOMM*%
%LPD*%
G01*
G04 APERTURE LIST*
G04 Aperture macros list*
%AMRotRect*
0 Rectangle, with rotation*
0 The origin of the aperture is its center*
0 $1 length*
0 $2 width*
0 $3 Rotation angle, in degrees counterclockwise*
0 Add horizontal line*
21,1,$1,$2,0,0,$3*%
%AMFreePoly0*
4,1,6,1.000000,0.000000,0.500000,-0.750000,-0.500000,-0.750000,-0.500000,0.750000,0.500000,0.750000,1.000000,0.000000,1.000000,0.000000,$1*%
%AMFreePoly1*
4,1,6,0.500000,-0.750000,-0.650000,-0.750000,-0.150000,0.000000,-0.650000,0.750000,0.500000,0.750000,0.500000,-0.750000,0.500000,-0.750000,$1*%
G04 Aperture macros list end*
%TA.AperFunction,SMDPad,CuDef*%
%ADD10R,1.100000X1.800000*%
%TD*%
%TA.AperFunction,ComponentPad*%
%ADD11R,1.778000X1.778000*%
%TD*%
%TA.AperFunction,SMDPad,CuDef*%
%ADD12R,0.900000X1.200000*%
%TD*%
%TA.AperFunction,ComponentPad*%
%ADD13C,1.905000*%
%TD*%
%TA.AperFunction,SMDPad,CuDef*%
%ADD14RotRect,2.550000X2.500000X315.000000*%
%TD*%
%TA.AperFunction,SMDPad,CuDef*%
%ADD15R,2.550000X2.500000*%
%TD*%
%TA.AperFunction,ComponentPad*%
%ADD16C,1.752600*%
%TD*%
%TA.AperFunction,SMDPad,CuDef*%
%ADD17FreePoly0,0.000000*%
%TD*%
%TA.AperFunction,SMDPad,CuDef*%
%ADD18FreePoly1,0.000000*%
%TD*%
%TA.AperFunction,SMDPad,CuDef*%
%ADD19FreePoly1,180.000000*%
%TD*%
%TA.AperFunction,SMDPad,CuDef*%
%ADD20FreePoly0,180.000000*%
%TD*%
%TA.AperFunction,ComponentPad*%
%ADD21C,0.800000*%
%TD*%
%TA.AperFunction,ComponentPad*%
%ADD22RotRect,1.778000X1.778000X315.000000*%
%TD*%
%TA.AperFunction,SMDPad,CuDef*%
%ADD23RotRect,0.900000X1.200000X315.000000*%
%TD*%
%TA.AperFunction,ComponentPad*%
%ADD24O,2.200000X1.600000*%
%TD*%
%TA.AperFunction,ComponentPad*%
%ADD25C,0.700000*%
%TD*%
%TA.AperFunction,ComponentPad*%
%ADD26C,4.400000*%
%TD*%
%TA.AperFunction,ComponentPad*%
%ADD27R,1.700000X1.700000*%
%TD*%
%TA.AperFunction,ComponentPad*%
%ADD28O,1.700000X1.700000*%
%TD*%
%TA.AperFunction,ViaPad*%
%ADD29C,0.800000*%
%TD*%
%TA.AperFunction,Conductor*%
%ADD30C,0.250000*%
%TD*%
G04 APERTURE END LIST*
D10*
%TO.P,B1,1*%
%TO.N,GND*%
X257400000Y-119000000D03*
X257400000Y-112800000D03*
%TO.P,B1,2*%
%TO.N,RST*%
X261100000Y-119000000D03*
X261100000Y-112800000D03*
%TD*%
D11*
%TO.P,D9,1*%
%TO.N,P18*%
X184290000Y-147000000D03*
D12*
X186450000Y-147000000D03*
%TO.P,D9,2*%
%TO.N,middle_bottom*%
X189750000Y-147000000D03*
D13*
X191910000Y-147000000D03*
%TD*%
D11*
%TO.P,D4,1*%
%TO.N,P21*%
X146190000Y-97850000D03*
D12*
X148350000Y-97850000D03*
%TO.P,D4,2*%
%TO.N,pinky_top*%
X151650000Y-97850000D03*
D13*
X153810000Y-97850000D03*
%TD*%
D11*
%TO.P,D24,1*%
%TO.N,P21*%
X241440000Y-97850000D03*
D12*
X243600000Y-97850000D03*
%TO.P,D24,2*%
%TO.N,aditional_top*%
X246900000Y-97850000D03*
D13*
X249060000Y-97850000D03*
%TD*%
D11*
%TO.P,D18,1*%
%TO.N,P19*%
X222390000Y-127950000D03*
D12*
X224550000Y-127950000D03*
%TO.P,D18,2*%
%TO.N,inner_home*%
X227850000Y-127950000D03*
D13*
X230010000Y-127950000D03*
%TD*%
D11*
%TO.P,D13,1*%
%TO.N,P18*%
X203340000Y-139000000D03*
D12*
X205500000Y-139000000D03*
%TO.P,D13,2*%
%TO.N,index_bottom*%
X208800000Y-139000000D03*
D13*
X210960000Y-139000000D03*
%TD*%
D14*
%TO.P,S26,1*%
%TO.N,P9*%
X258791103Y-198419400D03*
%TO.P,S26,2*%
%TO.N,two_main*%
X251446385Y-187482580D03*
%TD*%
D15*
%TO.P,S22,1*%
%TO.N,P9*%
X252335000Y-128410000D03*
%TO.P,S22,2*%
%TO.N,aditional_home*%
X239408000Y-125870000D03*
%TD*%
%TO.P,S12,1*%
%TO.N,P10*%
X195185000Y-82310000D03*
%TO.P,S12,2*%
%TO.N,middle_top*%
X182258000Y-79770000D03*
%TD*%
%TO.P,S11,1*%
%TO.N,P10*%
X195185000Y-101360000D03*
%TO.P,S11,2*%
%TO.N,middle_num*%
X182258000Y-98820000D03*
%TD*%
D16*
%TO.P,MCU1,*%
%TO.N,5*%
X258599997Y-86759999D03*
%TO.N,2*%
X258599999Y-79140001D03*
%TO.N,7*%
X258599999Y-91840001D03*
%TO.N,9*%
X258599999Y-96919999D03*
%TO.N,10*%
X258599999Y-99459995D03*
%TO.N,8*%
X258600000Y-94380000D03*
%TO.N,11*%
X258600000Y-102000000D03*
%TO.N,3*%
X258600001Y-81679999D03*
%TO.N,4*%
X258600001Y-84220001D03*
%TO.N,6*%
X258600001Y-89300000D03*
%TO.N,12*%
X258600008Y-104539999D03*
%TO.N,1*%
X258600015Y-76600002D03*
D17*
X260504999Y-76600000D03*
%TO.N,8*%
X260504999Y-94380001D03*
%TO.N,10*%
X260504999Y-99459997D03*
%TO.N,12*%
X260504999Y-104540003D03*
%TO.N,2*%
X260505000Y-79140001D03*
%TO.N,3*%
X260505000Y-81680000D03*
%TO.N,4*%
X260505000Y-84219999D03*
%TO.N,11*%
X260505000Y-102000000D03*
%TO.N,5*%
X260505001Y-86760000D03*
%TO.N,7*%
X260505001Y-91839999D03*
%TO.N,6*%
X260505003Y-89300001D03*
%TO.N,9*%
X260505003Y-96920001D03*
D18*
%TO.N,P5*%
X261954993Y-94380000D03*
%TO.N,GND*%
X261954994Y-81680002D03*
%TO.N,P7*%
X261954995Y-99460000D03*
%TO.N,P9*%
X261954995Y-104539999D03*
%TO.N,P1*%
X261954996Y-76600000D03*
%TO.N,GND*%
X261954996Y-84220000D03*
%TO.N,P4*%
X261954996Y-91840000D03*
%TO.N,P6*%
X261954996Y-96920000D03*
%TO.N,P8*%
X261954996Y-101999999D03*
%TO.N,P0*%
X261954997Y-79140001D03*
%TO.N,P3*%
X261954997Y-89300000D03*
%TO.N,P2*%
X261954998Y-86760008D03*
D19*
%TO.N,P19*%
X270484993Y-91839986D03*
%TO.N,GND*%
X270484994Y-79139999D03*
%TO.N,VCC*%
X270484994Y-84219999D03*
%TO.N,P20*%
X270484994Y-89300007D03*
%TO.N,P15*%
X270484994Y-96920000D03*
%TO.N,P14*%
X270484994Y-99460000D03*
%TO.N,P10*%
X270484994Y-104540000D03*
%TO.N,RAW*%
X270484995Y-76600000D03*
%TO.N,RST*%
X270484995Y-81680001D03*
%TO.N,P16*%
X270484995Y-101999999D03*
%TO.N,P18*%
X270484996Y-94380000D03*
%TO.N,P21*%
X270485001Y-86760000D03*
D20*
%TO.N,21*%
X271934997Y-84219999D03*
%TO.N,18*%
X271934997Y-91839999D03*
%TO.N,19*%
X271934999Y-89300001D03*
%TO.N,17*%
X271934999Y-94380000D03*
%TO.N,23*%
X271935000Y-79140000D03*
%TO.N,16*%
X271935000Y-96920001D03*
%TO.N,15*%
X271935000Y-99460000D03*
%TO.N,14*%
X271935000Y-101999999D03*
%TO.N,24*%
X271935001Y-76599997D03*
%TO.N,22*%
X271935001Y-81680003D03*
%TO.N,20*%
X271935001Y-86759999D03*
%TO.N,13*%
X271935001Y-104540000D03*
D16*
X273839985Y-104539998D03*
%TO.N,24*%
X273839992Y-76600001D03*
%TO.N,18*%
X273839999Y-91840000D03*
%TO.N,16*%
X273839999Y-96919999D03*
%TO.N,15*%
X273839999Y-99460001D03*
%TO.N,23*%
X273840000Y-79140000D03*
%TO.N,20*%
X273840000Y-86760000D03*
%TO.N,22*%
X273840001Y-81680005D03*
%TO.N,21*%
X273840001Y-84220001D03*
%TO.N,19*%
X273840001Y-89299999D03*
%TO.N,14*%
X273840001Y-101999999D03*
%TO.N,17*%
X273840003Y-94380001D03*
D21*
%TO.P,MCU1,B+*%
%TO.N,RAW*%
X268840000Y-76599999D03*
%TO.P,MCU1,GND*%
%TO.N,GND*%
X263599997Y-81680004D03*
X263600000Y-84219999D03*
X268840003Y-79140004D03*
%TO.P,MCU1,P0*%
%TO.N,P0*%
X263600001Y-79139999D03*
%TO.P,MCU1,P1*%
%TO.N,P1*%
X263600000Y-76600000D03*
%TO.P,MCU1,P2*%
%TO.N,P2*%
X263599999Y-86760000D03*
%TO.P,MCU1,P3*%
%TO.N,P3*%
X263599999Y-89300001D03*
%TO.P,MCU1,P4*%
%TO.N,P4*%
X263600000Y-91840000D03*
%TO.P,MCU1,P5*%
%TO.N,P5*%
X263600001Y-94379999D03*
%TO.P,MCU1,P6*%
%TO.N,P6*%
X263600001Y-96920000D03*
%TO.P,MCU1,P7*%
%TO.N,P7*%
X263600001Y-99459999D03*
%TO.P,MCU1,P8*%
%TO.N,P8*%
X263599997Y-101999996D03*
%TO.P,MCU1,P9*%
%TO.N,P9*%
X263600000Y-104540001D03*
%TO.P,MCU1,P10*%
%TO.N,P10*%
X268840000Y-104540000D03*
%TO.P,MCU1,P14*%
%TO.N,P14*%
X268840003Y-99459996D03*
%TO.P,MCU1,P15*%
%TO.N,P15*%
X268840000Y-96920001D03*
%TO.P,MCU1,P16*%
%TO.N,P16*%
X268839999Y-102000001D03*
%TO.P,MCU1,P18*%
%TO.N,P18*%
X268840001Y-94380000D03*
%TO.P,MCU1,P19*%
%TO.N,P19*%
X268840001Y-91839999D03*
%TO.P,MCU1,P20*%
%TO.N,P20*%
X268840000Y-89300000D03*
%TO.P,MCU1,P21*%
%TO.N,P21*%
X268839999Y-86760001D03*
%TO.P,MCU1,RST*%
%TO.N,RST*%
X268839999Y-81680001D03*
%TO.P,MCU1,VCC*%
%TO.N,VCC*%
X268839999Y-84220000D03*
%TD*%
D15*
%TO.P,S9,1*%
%TO.N,P10*%
X195185000Y-139460000D03*
%TO.P,S9,2*%
%TO.N,middle_bottom*%
X182258000Y-136920000D03*
%TD*%
D11*
%TO.P,D22,1*%
%TO.N,P19*%
X241440000Y-135950000D03*
D12*
X243600000Y-135950000D03*
%TO.P,D22,2*%
%TO.N,aditional_home*%
X246900000Y-135950000D03*
D13*
X249060000Y-135950000D03*
%TD*%
D11*
%TO.P,D5,1*%
%TO.N,P18*%
X165240000Y-155000000D03*
D12*
X167400000Y-155000000D03*
%TO.P,D5,2*%
%TO.N,ring_bottom*%
X170700000Y-155000000D03*
D13*
X172860000Y-155000000D03*
%TD*%
D15*
%TO.P,S4,1*%
%TO.N,P14*%
X157085000Y-90310000D03*
%TO.P,S4,2*%
%TO.N,pinky_top*%
X144158000Y-87770000D03*
%TD*%
%TO.P,S20,1*%
%TO.N,P8*%
X233285000Y-82310000D03*
%TO.P,S20,2*%
%TO.N,inner_top*%
X220358000Y-79770000D03*
%TD*%
%TO.P,S15,1*%
%TO.N,P7*%
X214235000Y-93360000D03*
%TO.P,S15,2*%
%TO.N,index_num*%
X201308000Y-90820000D03*
%TD*%
D22*
%TO.P,D25,1*%
%TO.N,P15*%
X239020423Y-175841423D03*
D23*
X240547774Y-177368774D03*
%TO.P,D25,2*%
%TO.N,one_main*%
X242881226Y-179702226D03*
D13*
X244408577Y-181229577D03*
%TD*%
D11*
%TO.P,D11,1*%
%TO.N,P20*%
X184290000Y-108900000D03*
D12*
X186450000Y-108900000D03*
%TO.P,D11,2*%
%TO.N,middle_num*%
X189750000Y-108900000D03*
D13*
X191910000Y-108900000D03*
%TD*%
D11*
%TO.P,D1,1*%
%TO.N,P18*%
X146190000Y-155000000D03*
D12*
X148350000Y-155000000D03*
%TO.P,D1,2*%
%TO.N,pinky_bottom*%
X151650000Y-155000000D03*
D13*
X153810000Y-155000000D03*
%TD*%
D11*
%TO.P,D20,1*%
%TO.N,P21*%
X222390000Y-89850000D03*
D12*
X224550000Y-89850000D03*
%TO.P,D20,2*%
%TO.N,inner_top*%
X227850000Y-89850000D03*
D13*
X230010000Y-89850000D03*
%TD*%
D15*
%TO.P,S5,1*%
%TO.N,P16*%
X176135000Y-147460000D03*
%TO.P,S5,2*%
%TO.N,ring_bottom*%
X163208000Y-144920000D03*
%TD*%
D11*
%TO.P,D19,1*%
%TO.N,P20*%
X222390000Y-108900000D03*
D12*
X224550000Y-108900000D03*
%TO.P,D19,2*%
%TO.N,inner_num*%
X227850000Y-108900000D03*
D13*
X230010000Y-108900000D03*
%TD*%
D11*
%TO.P,D14,1*%
%TO.N,P19*%
X203340000Y-119950000D03*
D12*
X205500000Y-119950000D03*
%TO.P,D14,2*%
%TO.N,index_home*%
X208800000Y-119950000D03*
D13*
X210960000Y-119950000D03*
%TD*%
D15*
%TO.P,S8,1*%
%TO.N,P16*%
X176135000Y-90310000D03*
%TO.P,S8,2*%
%TO.N,ring_top*%
X163208000Y-87770000D03*
%TD*%
%TO.P,S10,1*%
%TO.N,P10*%
X195185000Y-120410000D03*
%TO.P,S10,2*%
%TO.N,middle_home*%
X182258000Y-117870000D03*
%TD*%
D11*
%TO.P,D17,1*%
%TO.N,P18*%
X222390000Y-147000000D03*
D12*
X224550000Y-147000000D03*
%TO.P,D17,2*%
%TO.N,inner_bottom*%
X227850000Y-147000000D03*
D13*
X230010000Y-147000000D03*
%TD*%
D11*
%TO.P,D7,1*%
%TO.N,P20*%
X165240000Y-116900000D03*
D12*
X167400000Y-116900000D03*
%TO.P,D7,2*%
%TO.N,ring_num*%
X170700000Y-116900000D03*
D13*
X172860000Y-116900000D03*
%TD*%
D11*
%TO.P,D12,1*%
%TO.N,P21*%
X184290000Y-89850000D03*
D12*
X186450000Y-89850000D03*
%TO.P,D12,2*%
%TO.N,middle_top*%
X189750000Y-89850000D03*
D13*
X191910000Y-89850000D03*
%TD*%
D22*
%TO.P,D26,1*%
%TO.N,P15*%
X245755623Y-196047023D03*
D23*
X247282974Y-197574374D03*
%TO.P,D26,2*%
%TO.N,two_main*%
X249616426Y-199907826D03*
D13*
X251143777Y-201435177D03*
%TD*%
D24*
%TO.P,TRRS1,1*%
%TO.N,VCC*%
X265450000Y-113300000D03*
X265450000Y-117900000D03*
%TO.P,TRRS1,2*%
X266550000Y-113300000D03*
X266550000Y-117900000D03*
%TO.P,TRRS1,3*%
%TO.N,GND*%
X270550000Y-113300000D03*
X270550000Y-117900000D03*
%TO.P,TRRS1,4*%
%TO.N,P0*%
X273550000Y-113300000D03*
X273550000Y-117900000D03*
%TD*%
D15*
%TO.P,S19,1*%
%TO.N,P8*%
X233285000Y-101360000D03*
%TO.P,S19,2*%
%TO.N,inner_num*%
X220358000Y-98820000D03*
%TD*%
D11*
%TO.P,D16,1*%
%TO.N,P21*%
X203340000Y-81850000D03*
D12*
X205500000Y-81850000D03*
%TO.P,D16,2*%
%TO.N,index_top*%
X208800000Y-81850000D03*
D13*
X210960000Y-81850000D03*
%TD*%
D15*
%TO.P,S1,1*%
%TO.N,P14*%
X157085000Y-147460000D03*
%TO.P,S1,2*%
%TO.N,pinky_bottom*%
X144158000Y-144920000D03*
%TD*%
%TO.P,S6,1*%
%TO.N,P16*%
X176135000Y-128410000D03*
%TO.P,S6,2*%
%TO.N,ring_home*%
X163208000Y-125870000D03*
%TD*%
%TO.P,S7,1*%
%TO.N,P16*%
X176135000Y-109360000D03*
%TO.P,S7,2*%
%TO.N,ring_num*%
X163208000Y-106820000D03*
%TD*%
D11*
%TO.P,D10,1*%
%TO.N,P19*%
X184290000Y-127950000D03*
D12*
X186450000Y-127950000D03*
%TO.P,D10,2*%
%TO.N,middle_home*%
X189750000Y-127950000D03*
D13*
X191910000Y-127950000D03*
%TD*%
D15*
%TO.P,S16,1*%
%TO.N,P7*%
X214235000Y-74310000D03*
%TO.P,S16,2*%
%TO.N,index_top*%
X201308000Y-71770000D03*
%TD*%
%TO.P,S17,1*%
%TO.N,P8*%
X233285000Y-139460000D03*
%TO.P,S17,2*%
%TO.N,inner_bottom*%
X220358000Y-136920000D03*
%TD*%
%TO.P,S13,1*%
%TO.N,P7*%
X214235000Y-131460000D03*
%TO.P,S13,2*%
%TO.N,index_bottom*%
X201308000Y-128920000D03*
%TD*%
%TO.P,S18,1*%
%TO.N,P8*%
X233285000Y-120410000D03*
%TO.P,S18,2*%
%TO.N,inner_home*%
X220358000Y-117870000D03*
%TD*%
D25*
%TO.P,_3,1*%
%TO.N,N/C*%
X243600000Y-80086500D03*
X244083274Y-78919774D03*
X244083274Y-81253226D03*
X245250000Y-78436500D03*
D26*
X245250000Y-80086500D03*
D25*
X245250000Y-81736500D03*
X246416726Y-78919774D03*
X246416726Y-81253226D03*
X246900000Y-80086500D03*
%TD*%
D11*
%TO.P,D6,1*%
%TO.N,P19*%
X165240000Y-135950000D03*
D12*
X167400000Y-135950000D03*
%TO.P,D6,2*%
%TO.N,ring_home*%
X170700000Y-135950000D03*
D13*
X172860000Y-135950000D03*
%TD*%
D15*
%TO.P,S21,1*%
%TO.N,P9*%
X252335000Y-147460000D03*
%TO.P,S21,2*%
%TO.N,aditional_bottom*%
X239408000Y-144920000D03*
%TD*%
D11*
%TO.P,D3,1*%
%TO.N,P20*%
X146190000Y-116900000D03*
D12*
X148350000Y-116900000D03*
%TO.P,D3,2*%
%TO.N,pinky_num*%
X151650000Y-116900000D03*
D13*
X153810000Y-116900000D03*
%TD*%
D11*
%TO.P,D2,1*%
%TO.N,P19*%
X146190000Y-135950000D03*
D12*
X148350000Y-135950000D03*
%TO.P,D2,2*%
%TO.N,pinky_home*%
X151650000Y-135950000D03*
D13*
X153810000Y-135950000D03*
%TD*%
D11*
%TO.P,D21,1*%
%TO.N,P18*%
X241440000Y-155000000D03*
D12*
X243600000Y-155000000D03*
%TO.P,D21,2*%
%TO.N,aditional_bottom*%
X246900000Y-155000000D03*
D13*
X249060000Y-155000000D03*
%TD*%
D14*
%TO.P,S25,1*%
%TO.N,P8*%
X252055903Y-178213800D03*
%TO.P,S25,2*%
%TO.N,one_main*%
X244711185Y-167276980D03*
%TD*%
D11*
%TO.P,D23,1*%
%TO.N,P20*%
X241440000Y-116900000D03*
D12*
X243600000Y-116900000D03*
%TO.P,D23,2*%
%TO.N,aditional_num*%
X246900000Y-116900000D03*
D13*
X249060000Y-116900000D03*
%TD*%
D15*
%TO.P,S23,1*%
%TO.N,P9*%
X252335000Y-109360000D03*
%TO.P,S23,2*%
%TO.N,aditional_num*%
X239408000Y-106820000D03*
%TD*%
D25*
%TO.P,_4,1*%
%TO.N,N/C*%
X243600000Y-160858500D03*
X244083274Y-159691774D03*
X244083274Y-162025226D03*
X245250000Y-159208500D03*
D26*
X245250000Y-160858500D03*
D25*
X245250000Y-162508500D03*
X246416726Y-159691774D03*
X246416726Y-162025226D03*
X246900000Y-160858500D03*
%TD*%
D15*
%TO.P,S3,1*%
%TO.N,P14*%
X157085000Y-109360000D03*
%TO.P,S3,2*%
%TO.N,pinky_num*%
X144158000Y-106820000D03*
%TD*%
D25*
%TO.P,_1,1*%
%TO.N,N/C*%
X157875000Y-102375000D03*
X158358274Y-101208274D03*
X158358274Y-103541726D03*
X159525000Y-100725000D03*
D26*
X159525000Y-102375000D03*
D25*
X159525000Y-104025000D03*
X160691726Y-101208274D03*
X160691726Y-103541726D03*
X161175000Y-102375000D03*
%TD*%
D15*
%TO.P,S14,1*%
%TO.N,P7*%
X214235000Y-112410000D03*
%TO.P,S14,2*%
%TO.N,index_home*%
X201308000Y-109870000D03*
%TD*%
D27*
%TO.P,OLED1,1*%
%TO.N,GND*%
X269940000Y-108200000D03*
D28*
%TO.P,OLED1,2*%
%TO.N,VCC*%
X267400000Y-108200000D03*
%TO.P,OLED1,3*%
%TO.N,P3*%
X264860000Y-108200000D03*
%TO.P,OLED1,4*%
%TO.N,P2*%
X262320000Y-108200000D03*
%TD*%
D15*
%TO.P,S2,1*%
%TO.N,P14*%
X157085000Y-128410000D03*
%TO.P,S2,2*%
%TO.N,pinky_home*%
X144158000Y-125870000D03*
%TD*%
D25*
%TO.P,_2,1*%
%TO.N,N/C*%
X157875000Y-140475000D03*
X158358274Y-139308274D03*
X158358274Y-141641726D03*
X159525000Y-138825000D03*
D26*
X159525000Y-140475000D03*
D25*
X159525000Y-142125000D03*
X160691726Y-139308274D03*
X160691726Y-141641726D03*
X161175000Y-140475000D03*
%TD*%
D11*
%TO.P,D8,1*%
%TO.N,P21*%
X165240000Y-97850000D03*
D12*
X167400000Y-97850000D03*
%TO.P,D8,2*%
%TO.N,ring_top*%
X170700000Y-97850000D03*
D13*
X172860000Y-97850000D03*
%TD*%
D11*
%TO.P,D15,1*%
%TO.N,P20*%
X203340000Y-100900000D03*
D12*
X205500000Y-100900000D03*
%TO.P,D15,2*%
%TO.N,index_num*%
X208800000Y-100900000D03*
D13*
X210960000Y-100900000D03*
%TD*%
D15*
%TO.P,S24,1*%
%TO.N,P9*%
X252335000Y-90310000D03*
%TO.P,S24,2*%
%TO.N,aditional_top*%
X239408000Y-87770000D03*
%TD*%
D29*
%TO.N,P9*%
X252335000Y-121600000D03*
%TO.N,P14*%
X159304600Y-105695200D03*
X156940300Y-138411300D03*
%TO.N,P16*%
X176095400Y-85369300D03*
X176135000Y-131351400D03*
X266464600Y-102000000D03*
X268870400Y-82725000D03*
X176464800Y-111411500D03*
X176239000Y-150457500D03*
%TO.N,ring_bottom*%
X179322100Y-146206200D03*
%TO.N,ring_num*%
X173115600Y-113823000D03*
%TO.N,ring_top*%
X173115600Y-94697200D03*
%TO.N,P10*%
X195185000Y-94216600D03*
X195732000Y-142458300D03*
X196200000Y-79119100D03*
X195458500Y-122935300D03*
%TO.N,middle_bottom*%
X194374000Y-143221300D03*
%TO.N,P7*%
X252682300Y-95571700D03*
X213314600Y-117257900D03*
X213699400Y-88893900D03*
X215125400Y-125940300D03*
%TO.N,P8*%
X235061400Y-166202200D03*
X233813900Y-103412300D03*
X235807500Y-82219000D03*
X235061400Y-142456700D03*
X234085900Y-94216600D03*
X235186000Y-117686100D03*
X253061400Y-172618200D03*
%TO.N,inner_num*%
X223920000Y-95579500D03*
%TO.N,P9*%
X252335000Y-141938700D03*
X259491000Y-187279800D03*
X250103400Y-114248500D03*
X255300500Y-88914700D03*
%TO.N,P18*%
X256220400Y-154204600D03*
%TO.N,P19*%
X244084100Y-99766800D03*
%TO.N,P20*%
X207149800Y-107466500D03*
X264892000Y-119400800D03*
%TO.N,P21*%
X202624700Y-88565500D03*
%TO.N,P15*%
X240248900Y-100503800D03*
%TO.N,GND*%
X265464200Y-106370000D03*
%TO.N,P3*%
X263058000Y-106398000D03*
%TD*%
D30*
%TO.N,P15*%
X247283000Y-197574400D02*
X244896000Y-195187400D01*
X244896000Y-195187400D02*
X244896000Y-185178000D01*
X241096900Y-177918000D02*
X241097000Y-177917900D01*
X244896000Y-185178000D02*
X241096900Y-181378900D01*
X241096900Y-181378900D02*
X241096900Y-177918000D01*
X241097000Y-177917900D02*
X240547800Y-177368800D01*
X240547800Y-177368800D02*
X237303400Y-174124400D01*
X237303400Y-174124400D02*
X237303400Y-103449300D01*
X237303400Y-103449300D02*
X240248900Y-100503800D01*
%TO.N,P9*%
X252335000Y-114248500D02*
X252335000Y-121600000D01*
%TO.N,P14*%
X157085000Y-90310000D02*
X156940300Y-90454700D01*
X156940300Y-109215300D02*
X157085000Y-109360000D01*
X156940300Y-130131400D02*
X157085000Y-129986700D01*
X156940300Y-138411300D02*
X156940300Y-130131400D01*
X156940300Y-90454700D02*
X156940300Y-109215300D01*
X157085000Y-147460000D02*
X157085000Y-145883300D01*
X157085000Y-145883300D02*
X156940300Y-145738600D01*
X159304600Y-105695200D02*
X159304600Y-107140400D01*
X270485000Y-99460000D02*
X268840000Y-99460000D01*
X157085000Y-129986700D02*
X157085000Y-128410000D01*
X159304600Y-107140400D02*
X157085000Y-109360000D01*
X156940300Y-145738600D02*
X156940300Y-138411300D01*
X157085000Y-109360000D02*
X157085000Y-128410000D01*
%TO.N,pinky_bottom*%
X143446100Y-147208600D02*
X144158000Y-146496700D01*
X144158000Y-144920000D02*
X144158000Y-146496700D01*
X143446100Y-150562300D02*
X143446100Y-147208600D01*
X150873300Y-155000000D02*
X148507100Y-152633800D01*
X148507100Y-152633800D02*
X145517600Y-152633800D01*
X151650000Y-155000000D02*
X150873300Y-155000000D01*
X151650000Y-155000000D02*
X153810000Y-155000000D01*
X145517600Y-152633800D02*
X143446100Y-150562300D01*
%TO.N,pinky_home*%
X146158300Y-134255800D02*
X149179100Y-134255800D01*
X149179100Y-134255800D02*
X150873300Y-135950000D01*
X144158000Y-125870000D02*
X144158000Y-127446700D01*
X143419100Y-131516600D02*
X146158300Y-134255800D01*
X144158000Y-127446700D02*
X143419100Y-128185600D01*
X151650000Y-135950000D02*
X150873300Y-135950000D01*
X153810000Y-135950000D02*
X151650000Y-135950000D01*
X143419100Y-128185600D02*
X143419100Y-131516600D01*
%TO.N,pinky_num*%
X144158000Y-108396700D02*
X143419100Y-109135600D01*
X143419100Y-112466600D02*
X146600200Y-115647700D01*
X146600200Y-115647700D02*
X149621000Y-115647700D01*
X143419100Y-109135600D02*
X143419100Y-112466600D01*
X149621000Y-115647700D02*
X150873300Y-116900000D01*
X144158000Y-106820000D02*
X144158000Y-108396700D01*
X153810000Y-116900000D02*
X151650000Y-116900000D01*
X151650000Y-116900000D02*
X150873300Y-116900000D01*
%TO.N,pinky_top*%
X149179100Y-96155800D02*
X150873300Y-97850000D01*
X151650000Y-97850000D02*
X153810000Y-97850000D01*
X144158000Y-87770000D02*
X144158000Y-89346700D01*
X151650000Y-97850000D02*
X150873300Y-97850000D01*
X143419100Y-90085600D02*
X143419100Y-93416600D01*
X146158300Y-96155800D02*
X149179100Y-96155800D01*
X144158000Y-89346700D02*
X143419100Y-90085600D01*
X143419100Y-93416600D02*
X146158300Y-96155800D01*
%TO.N,P16*%
X176135000Y-147460000D02*
X176135000Y-131351400D01*
X176299900Y-111411500D02*
X176464800Y-111411500D01*
X176135000Y-111411500D02*
X176135000Y-109360000D01*
X176135000Y-85408900D02*
X176135000Y-90310000D01*
X266464600Y-85130800D02*
X268870400Y-82725000D01*
X176135000Y-128410000D02*
X176135000Y-111411500D01*
X176135000Y-150353500D02*
X176135000Y-147460000D01*
X176095400Y-85369300D02*
X176135000Y-85408900D01*
X176135000Y-90310000D02*
X176135000Y-109360000D01*
X176464800Y-111411500D02*
X176299900Y-111411500D01*
X176135000Y-131351400D02*
X176135000Y-128410000D01*
X270485000Y-102000000D02*
X268840000Y-102000000D01*
X176239000Y-150457500D02*
X176135000Y-150353500D01*
X176464800Y-111411500D02*
X176135000Y-111411500D01*
X266464600Y-102000000D02*
X266464600Y-85130800D01*
%TO.N,ring_bottom*%
X163208000Y-146496700D02*
X162539500Y-147165200D01*
X165188600Y-153305800D02*
X168229100Y-153305800D01*
X163208000Y-144920000D02*
X163208000Y-146496700D01*
X162539500Y-147165200D02*
X162539500Y-150656700D01*
X162539500Y-150656700D02*
X165188600Y-153305800D01*
X168229100Y-153305800D02*
X169923300Y-155000000D01*
X170700000Y-155000000D02*
X172860000Y-155000000D01*
X172860000Y-155000000D02*
X179322100Y-148537900D01*
X179322100Y-148537900D02*
X179322100Y-146206200D01*
X170700000Y-155000000D02*
X169923300Y-155000000D01*
%TO.N,ring_home*%
X170052600Y-135250000D02*
X170052600Y-135097900D01*
X171780000Y-135950000D02*
X170752600Y-135950000D01*
X162513900Y-128140800D02*
X163208000Y-127446700D01*
X170052600Y-135097900D02*
X169372000Y-134417300D01*
X165410100Y-134417300D02*
X162513900Y-131521100D01*
X163208000Y-125870000D02*
X163208000Y-127446700D01*
X162513900Y-131521100D02*
X162513900Y-128140800D01*
X172860000Y-135950000D02*
X171780000Y-135950000D01*
X169372000Y-134417300D02*
X165410100Y-134417300D01*
X171780000Y-135950000D02*
X170700000Y-135950000D01*
X170752600Y-135950000D02*
X170052600Y-135250000D01*
%TO.N,ring_num*%
X162539500Y-109065200D02*
X162539500Y-112556700D01*
X163208000Y-108396700D02*
X162539500Y-109065200D01*
X168223300Y-115200000D02*
X169923300Y-116900000D01*
X173115600Y-116644400D02*
X172860000Y-116900000D01*
X172860000Y-116900000D02*
X170700000Y-116900000D01*
X169923300Y-116900000D02*
X170700000Y-116900000D01*
X173115600Y-113823000D02*
X173115600Y-116644400D01*
X163208000Y-106820000D02*
X163208000Y-108396700D01*
X162539500Y-112556700D02*
X165182800Y-115200000D01*
X165182800Y-115200000D02*
X168223300Y-115200000D01*
%TO.N,ring_top*%
X173115600Y-94697200D02*
X173115600Y-97594400D01*
X165410100Y-96317300D02*
X162513900Y-93421100D01*
X170700000Y-97850000D02*
X169167300Y-96317300D01*
X169167300Y-96317300D02*
X165410100Y-96317300D01*
X173115600Y-97594400D02*
X172860000Y-97850000D01*
X171780000Y-97850000D02*
X170700000Y-97850000D01*
X162513900Y-93421100D02*
X162513900Y-90040800D01*
X172860000Y-97850000D02*
X171780000Y-97850000D01*
X162513900Y-90040800D02*
X163208000Y-89346700D01*
X163208000Y-89346700D02*
X163208000Y-87770000D01*
%TO.N,P10*%
X195732000Y-142458300D02*
X195185000Y-141911300D01*
X195185000Y-99178100D02*
X195185000Y-101360000D01*
X195185000Y-121198300D02*
X195185000Y-121986700D01*
X195458500Y-122935300D02*
X195458500Y-122260200D01*
X195185000Y-121198300D02*
X195185000Y-99178100D01*
X195185000Y-94216600D02*
X195185000Y-82310000D01*
X195458500Y-122935300D02*
X195458500Y-137609800D01*
X195185000Y-120410000D02*
X195185000Y-121198300D01*
X195185000Y-80134100D02*
X195185000Y-82310000D01*
X195185000Y-139460000D02*
X195185000Y-137883300D01*
X195185000Y-141911300D02*
X195185000Y-139460000D01*
X195458500Y-122260200D02*
X195185000Y-121986700D01*
X196200000Y-79119100D02*
X195185000Y-80134100D01*
X195458500Y-137609800D02*
X195185000Y-137883300D01*
X195185000Y-99178100D02*
X195185000Y-94216600D01*
X270485000Y-104540000D02*
X268840000Y-104540000D01*
%TO.N,middle_bottom*%
X191910000Y-147000000D02*
X191910000Y-145685300D01*
X191910000Y-145685300D02*
X194374000Y-143221300D01*
X182258000Y-136920000D02*
X182258000Y-138496700D01*
X187721000Y-145747700D02*
X188973300Y-147000000D01*
X189750000Y-147000000D02*
X188973300Y-147000000D01*
X182258000Y-138496700D02*
X181541800Y-139212900D01*
X181541800Y-139212900D02*
X181541800Y-142588800D01*
X181541800Y-142588800D02*
X184700700Y-145747700D01*
X184700700Y-145747700D02*
X187721000Y-145747700D01*
X191910000Y-147000000D02*
X189750000Y-147000000D01*
%TO.N,middle_home*%
X181541800Y-120162900D02*
X181541800Y-123538800D01*
X189750000Y-127950000D02*
X188973300Y-127950000D01*
X187279100Y-126255800D02*
X188973300Y-127950000D01*
X182258000Y-117870000D02*
X182258000Y-119446700D01*
X191910000Y-127950000D02*
X189750000Y-127950000D01*
X182258000Y-119446700D02*
X181541800Y-120162900D01*
X184258800Y-126255800D02*
X187279100Y-126255800D01*
X181541800Y-123538800D02*
X184258800Y-126255800D01*
%TO.N,middle_num*%
X191910000Y-108900000D02*
X189750000Y-108900000D01*
X182258000Y-98820000D02*
X182258000Y-100396700D01*
X184463700Y-107367300D02*
X181591500Y-104495100D01*
X181591500Y-104495100D02*
X181591500Y-101063200D01*
X189750000Y-108900000D02*
X188973300Y-108900000D01*
X188973300Y-108900000D02*
X187440600Y-107367300D01*
X181591500Y-101063200D02*
X182258000Y-100396700D01*
X187440600Y-107367300D02*
X184463700Y-107367300D01*
%TO.N,middle_top*%
X182258000Y-79770000D02*
X182258000Y-81346700D01*
X189750000Y-89850000D02*
X188973300Y-89850000D01*
X187721000Y-88597700D02*
X188973300Y-89850000D01*
X182258000Y-81346700D02*
X181591900Y-82012800D01*
X181591900Y-82012800D02*
X181591900Y-85521500D01*
X181591900Y-85521500D02*
X184668100Y-88597700D01*
X184668100Y-88597700D02*
X187721000Y-88597700D01*
X191910000Y-89850000D02*
X189750000Y-89850000D01*
%TO.N,P7*%
X213699400Y-76422300D02*
X213699400Y-88893900D01*
X262777500Y-99460000D02*
X263600000Y-99460000D01*
X252682300Y-95571700D02*
X255367600Y-98257000D01*
X261955000Y-99460000D02*
X262777500Y-99460000D01*
X214235000Y-74310000D02*
X214235000Y-75886700D01*
X214235000Y-112410000D02*
X214235000Y-110833300D01*
X215125400Y-125940300D02*
X215125400Y-118148300D01*
X214235000Y-117257900D02*
X213314600Y-117257900D01*
X213699400Y-88893900D02*
X214235000Y-89429500D01*
X214235000Y-75886700D02*
X213699400Y-76422300D01*
X214235000Y-117257900D02*
X214235000Y-113986700D01*
X215125400Y-118148300D02*
X214235000Y-117257900D01*
X214235000Y-112410000D02*
X214235000Y-113986700D01*
X214235000Y-131460000D02*
X214235000Y-126830700D01*
X214235000Y-126830700D02*
X215125400Y-125940300D01*
X214235000Y-93344300D02*
X214235000Y-110833300D01*
X255367600Y-98257000D02*
X263257000Y-98257000D01*
X214235000Y-89429500D02*
X214235000Y-93344300D01*
X263257000Y-98257000D02*
X263600000Y-98600000D01*
X263600000Y-98600000D02*
X263600001Y-99459999D01*
X214235000Y-93344300D02*
X214235000Y-93360000D01*
%TO.N,index_bottom*%
X206749100Y-137725800D02*
X208023300Y-139000000D01*
X201308000Y-128920000D02*
X201308000Y-130496700D01*
X201308000Y-130496700D02*
X200597800Y-131206900D01*
X210960000Y-139000000D02*
X208800000Y-139000000D01*
X200597800Y-134604100D02*
X203719500Y-137725800D01*
X203719500Y-137725800D02*
X206749100Y-137725800D01*
X208800000Y-139000000D02*
X208023300Y-139000000D01*
X200597800Y-131206900D02*
X200597800Y-134604100D01*
%TO.N,index_home*%
X200597800Y-112156900D02*
X200597800Y-115554100D01*
X201308000Y-111446700D02*
X200597800Y-112156900D01*
X208800000Y-119950000D02*
X208023300Y-119950000D01*
X201308000Y-109870000D02*
X201308000Y-111446700D01*
X200597800Y-115554100D02*
X203719500Y-118675800D01*
X208800000Y-119950000D02*
X210960000Y-119950000D01*
X203719500Y-118675800D02*
X206749100Y-118675800D01*
X206749100Y-118675800D02*
X208023300Y-119950000D01*
%TO.N,index_num*%
X208152600Y-100200000D02*
X208152600Y-100047900D01*
X200618100Y-96556800D02*
X200618100Y-93086600D01*
X209880000Y-100900000D02*
X208800000Y-100900000D01*
X200618100Y-93086600D02*
X201308000Y-92396700D01*
X203428600Y-99367300D02*
X200618100Y-96556800D01*
X207472000Y-99367300D02*
X203428600Y-99367300D01*
X201308000Y-90820000D02*
X201308000Y-92396700D01*
X208852600Y-100900000D02*
X208152600Y-100200000D01*
X208152600Y-100047900D02*
X207472000Y-99367300D01*
X210960000Y-100900000D02*
X209880000Y-100900000D01*
X209880000Y-100900000D02*
X208852600Y-100900000D01*
%TO.N,index_top*%
X200641900Y-77521500D02*
X203718100Y-80597700D01*
X210960000Y-81850000D02*
X208800000Y-81850000D01*
X203718100Y-80597700D02*
X206771000Y-80597700D01*
X206771000Y-80597700D02*
X208023300Y-81850000D01*
X208800000Y-81850000D02*
X208023300Y-81850000D01*
X200641900Y-74012800D02*
X200641900Y-77521500D01*
X201308000Y-71770000D02*
X201308000Y-73346700D01*
X201308000Y-73346700D02*
X200641900Y-74012800D01*
%TO.N,P8*%
X253061400Y-176989600D02*
X253170800Y-177098900D01*
X235186000Y-117686100D02*
X235186000Y-104784400D01*
X233285000Y-140685000D02*
X233285000Y-140248300D01*
X235061400Y-142456700D02*
X235056700Y-142456700D01*
X233760600Y-103412300D02*
X233285000Y-102936700D01*
X235807500Y-82219000D02*
X235716500Y-82310000D01*
X234085900Y-82310000D02*
X234085900Y-94216600D01*
X233285000Y-101360000D02*
X233285000Y-102936700D01*
X235061400Y-166202200D02*
X235061400Y-142456700D01*
X233285000Y-139460000D02*
X233285000Y-140248300D01*
X234085900Y-94216600D02*
X234085900Y-98982400D01*
X252055900Y-178213800D02*
X253170800Y-177098900D01*
X233285000Y-82310000D02*
X234085900Y-82310000D01*
X235186000Y-104784400D02*
X233813900Y-103412300D01*
X235186000Y-117686100D02*
X235186000Y-118509000D01*
X233285000Y-140248300D02*
X233285000Y-120410000D01*
X261955000Y-102000000D02*
X263600000Y-102000000D01*
X233285000Y-101360000D02*
X233285000Y-99783300D01*
X253061400Y-172618200D02*
X253061400Y-176989600D01*
X235056700Y-142456700D02*
X233285000Y-140685000D01*
X233813900Y-103412300D02*
X233760600Y-103412300D01*
X235186000Y-118509000D02*
X233285000Y-120410000D01*
X235716500Y-82310000D02*
X233285000Y-82310000D01*
X234085900Y-98982400D02*
X233285000Y-99783300D01*
%TO.N,inner_bottom*%
X222769500Y-145725800D02*
X225799100Y-145725800D01*
X219647800Y-142604100D02*
X222769500Y-145725800D01*
X219647800Y-139206900D02*
X219647800Y-142604100D01*
X220358000Y-136920000D02*
X220358000Y-138496700D01*
X225799100Y-145725800D02*
X227073300Y-147000000D01*
X227850000Y-147000000D02*
X227073300Y-147000000D01*
X227850000Y-147000000D02*
X230010000Y-147000000D01*
X220358000Y-138496700D02*
X219647800Y-139206900D01*
%TO.N,inner_home*%
X219647800Y-123554100D02*
X222769500Y-126675800D01*
X219647800Y-120156900D02*
X219647800Y-123554100D01*
X220358000Y-119446700D02*
X219647800Y-120156900D01*
X227850000Y-127950000D02*
X227073300Y-127950000D01*
X220358000Y-117870000D02*
X220358000Y-119446700D01*
X227850000Y-127950000D02*
X230010000Y-127950000D01*
X225799100Y-126675800D02*
X227073300Y-127950000D01*
X222769500Y-126675800D02*
X225799100Y-126675800D01*
%TO.N,inner_num*%
X225379100Y-107205800D02*
X227073300Y-108900000D01*
X222384500Y-107205800D02*
X225379100Y-107205800D01*
X219647400Y-104468700D02*
X222384500Y-107205800D01*
X220358000Y-98820000D02*
X220358000Y-100396700D01*
X220358000Y-100396700D02*
X219647400Y-101107300D01*
X219647400Y-101107300D02*
X219647400Y-104468700D01*
X227850000Y-108900000D02*
X230010000Y-108900000D01*
X223920000Y-95579500D02*
X220679500Y-98820000D01*
X220679500Y-98820000D02*
X220358000Y-98820000D01*
X227850000Y-108900000D02*
X227073300Y-108900000D01*
%TO.N,inner_top*%
X220358000Y-79770000D02*
X220358000Y-81346700D01*
X227850000Y-89850000D02*
X227073300Y-89850000D01*
X222769500Y-88575800D02*
X225799100Y-88575800D01*
X219647800Y-82056900D02*
X219647800Y-85454100D01*
X227850000Y-89850000D02*
X230010000Y-89850000D01*
X219647800Y-85454100D02*
X222769500Y-88575800D01*
X225799100Y-88575800D02*
X227073300Y-89850000D01*
X220358000Y-81346700D02*
X219647800Y-82056900D01*
%TO.N,P9*%
X251955600Y-92266100D02*
X251955600Y-107403900D01*
X261955000Y-104540000D02*
X263600000Y-104540000D01*
X252335000Y-109360000D02*
X252335000Y-114248500D01*
X260000000Y-187788800D02*
X259491000Y-187279800D01*
X252335000Y-147460000D02*
X252335000Y-149036700D01*
X252335000Y-128410000D02*
X252335000Y-141938700D01*
X252335000Y-109360000D02*
X258780001Y-109360000D01*
X252335000Y-91886700D02*
X251955600Y-92266100D01*
X252335000Y-109360000D02*
X252335000Y-107783300D01*
X255324800Y-183113600D02*
X259491000Y-187279800D01*
X252335000Y-112016900D02*
X252335000Y-109360000D01*
X260000000Y-197210500D02*
X260000000Y-187788800D01*
X250103400Y-114248500D02*
X252335000Y-112016900D01*
X258791100Y-198419400D02*
X260000000Y-197210500D01*
X255324800Y-152026500D02*
X255324800Y-183113600D01*
X252335000Y-90310000D02*
X252335000Y-91886700D01*
X258780001Y-109360000D02*
X263600000Y-104540001D01*
X252335000Y-141938700D02*
X252335000Y-147460000D01*
X251955600Y-107403900D02*
X252335000Y-107783300D01*
X252335000Y-121600000D02*
X252335000Y-128410000D01*
X252335000Y-149036700D02*
X255324800Y-152026500D01*
X261954995Y-105217805D02*
X261954995Y-104539999D01*
%TO.N,aditional_bottom*%
X246900000Y-155000000D02*
X246123300Y-155000000D01*
X238717300Y-147187400D02*
X239408000Y-146496700D01*
X241890500Y-153747700D02*
X238717300Y-150574500D01*
X239408000Y-144920000D02*
X239408000Y-146496700D01*
X249060000Y-155000000D02*
X246900000Y-155000000D01*
X246123300Y-155000000D02*
X244871000Y-153747700D01*
X238717300Y-150574500D02*
X238717300Y-147187400D01*
X244871000Y-153747700D02*
X241890500Y-153747700D01*
%TO.N,aditional_home*%
X239408000Y-125870000D02*
X239408000Y-127446700D01*
X241876400Y-134697700D02*
X244871000Y-134697700D01*
X244871000Y-134697700D02*
X246123300Y-135950000D01*
X249060000Y-135950000D02*
X246900000Y-135950000D01*
X238697400Y-131518700D02*
X241876400Y-134697700D01*
X246900000Y-135950000D02*
X246123300Y-135950000D01*
X239408000Y-127446700D02*
X238697400Y-128157300D01*
X238697400Y-128157300D02*
X238697400Y-131518700D01*
%TO.N,aditional_num*%
X241876400Y-115647700D02*
X244871000Y-115647700D01*
X246900000Y-116900000D02*
X246123300Y-116900000D01*
X239408000Y-108396700D02*
X238697400Y-109107300D01*
X244871000Y-115647700D02*
X246123300Y-116900000D01*
X238697400Y-112468700D02*
X241876400Y-115647700D01*
X249060000Y-116900000D02*
X246900000Y-116900000D01*
X238697400Y-109107300D02*
X238697400Y-112468700D01*
X239408000Y-106820000D02*
X239408000Y-108396700D01*
%TO.N,aditional_top*%
X244429100Y-96155800D02*
X246123300Y-97850000D01*
X238697400Y-90057300D02*
X238697400Y-93418700D01*
X246900000Y-97850000D02*
X249060000Y-97850000D01*
X246900000Y-97850000D02*
X246123300Y-97850000D01*
X241434500Y-96155800D02*
X244429100Y-96155800D01*
X239408000Y-87770000D02*
X239408000Y-89346700D01*
X239408000Y-89346700D02*
X238697400Y-90057300D01*
X238697400Y-93418700D02*
X241434500Y-96155800D01*
%TO.N,one_main*%
X240226500Y-173726700D02*
X240226500Y-170778100D01*
X243186700Y-178699200D02*
X242680900Y-178193400D01*
X242680900Y-178193400D02*
X242680900Y-176181100D01*
X243644900Y-180465900D02*
X243186700Y-180007700D01*
X242881200Y-179702200D02*
X243644900Y-180465900D01*
X243186700Y-180007700D02*
X243186700Y-178699200D01*
X243644900Y-180465900D02*
X244408600Y-181229600D01*
X243596200Y-168391900D02*
X243596300Y-168391900D01*
X240226500Y-170778100D02*
X242612700Y-168391900D01*
X242612700Y-168391900D02*
X243596200Y-168391900D01*
X242680900Y-176181100D02*
X240226500Y-173726700D01*
X244711200Y-167277000D02*
X243596300Y-168391900D01*
%TO.N,two_main*%
X249355300Y-188597500D02*
X246945800Y-191007000D01*
X246945800Y-191007000D02*
X246945800Y-194945800D01*
X249067300Y-197067300D02*
X249067300Y-199358600D01*
X246945800Y-194945800D02*
X249067300Y-197067300D01*
X250331500Y-188597500D02*
X249355300Y-188597500D01*
X249067300Y-199358600D02*
X249616400Y-199907800D01*
X251446400Y-187482600D02*
X250331500Y-188597500D01*
X249616400Y-199907800D02*
X251143800Y-201435200D01*
%TO.N,P18*%
X205500000Y-139000000D02*
X203340000Y-139000000D01*
X271976700Y-119023300D02*
X271976700Y-107995700D01*
X224550000Y-147000000D02*
X222390000Y-147000000D01*
X270204000Y-106223000D02*
X269495300Y-106223000D01*
X268840000Y-94380000D02*
X270485000Y-94380000D01*
X270204000Y-106223000D02*
X271976700Y-107995700D01*
X268094800Y-104822500D02*
X268094800Y-95125200D01*
X256220400Y-121579600D02*
X257122300Y-120677700D01*
X268094800Y-95125200D02*
X268840000Y-94380000D01*
X257122300Y-120677700D02*
X270322300Y-120677700D01*
X243600000Y-155000000D02*
X241440000Y-155000000D01*
X256220400Y-154204600D02*
X256220400Y-121579600D01*
X270322300Y-120677700D02*
X271976700Y-119023300D01*
X186450000Y-147000000D02*
X184290000Y-147000000D01*
X165240000Y-155000000D02*
X167400000Y-155000000D01*
X148350000Y-155000000D02*
X146190000Y-155000000D01*
X269495300Y-106223000D02*
X268094800Y-104822500D01*
%TO.N,P19*%
X237764000Y-132274000D02*
X237764000Y-105443100D01*
X203340000Y-119950000D02*
X205500000Y-119950000D01*
X242073600Y-135950000D02*
X241440000Y-135950000D01*
X148350000Y-135950000D02*
X146190000Y-135950000D01*
X243440300Y-99766800D02*
X244084100Y-99766800D01*
X184290000Y-127950000D02*
X186450000Y-127950000D01*
X243600000Y-135950000D02*
X242125300Y-135950000D01*
X268840000Y-91840000D02*
X270485000Y-91840000D01*
X242125300Y-135950000D02*
X242073600Y-135950000D01*
X167400000Y-135950000D02*
X165240000Y-135950000D01*
X237764000Y-105443100D02*
X243440300Y-99766800D01*
X224550000Y-127950000D02*
X222390000Y-127950000D01*
X241440000Y-135950000D02*
X237764000Y-132274000D01*
%TO.N,P20*%
X267643100Y-90496900D02*
X268840000Y-89300000D01*
X243600000Y-116900000D02*
X241440000Y-116900000D01*
X267907700Y-105491900D02*
X267643100Y-105227300D01*
X268094800Y-105679000D02*
X268745700Y-106329900D01*
X267643100Y-105227300D02*
X267643100Y-90496900D01*
X222390000Y-108900000D02*
X224550000Y-108900000D01*
X268840000Y-89300000D02*
X269662500Y-89300000D01*
X268745700Y-106329900D02*
X268745700Y-113871100D01*
X267907700Y-105491900D02*
X268094800Y-105679000D01*
X167400000Y-116900000D02*
X165240000Y-116900000D01*
X205500000Y-105816700D02*
X207149800Y-107466500D01*
X266943500Y-119400800D02*
X264892000Y-119400800D01*
X269476700Y-116867600D02*
X266943500Y-119400800D01*
X269476700Y-114602100D02*
X269476700Y-116867600D01*
X186450000Y-108900000D02*
X184290000Y-108900000D01*
X205500000Y-100900000D02*
X203340000Y-100900000D01*
X269662500Y-89300000D02*
X270485000Y-89300000D01*
X268745700Y-113871100D02*
X269476700Y-114602100D01*
X205500000Y-100900000D02*
X205500000Y-105816700D01*
X267907700Y-105491900D02*
X268094800Y-105679000D01*
X148350000Y-116900000D02*
X146190000Y-116900000D01*
%TO.N,P21*%
X167400000Y-97850000D02*
X165240000Y-97850000D01*
X203340000Y-81850000D02*
X205500000Y-81850000D01*
X241440000Y-97850000D02*
X243600000Y-97850000D01*
X146190000Y-97850000D02*
X148350000Y-97850000D01*
X203340000Y-81850000D02*
X203340000Y-87850200D01*
X203340000Y-87850200D02*
X202624700Y-88565500D01*
X224550000Y-89850000D02*
X222390000Y-89850000D01*
X186450000Y-89850000D02*
X184290000Y-89850000D01*
X270485000Y-86760000D02*
X268840000Y-86760000D01*
%TO.N,P15*%
X270485000Y-96920000D02*
X268840000Y-96920000D01*
%TO.N,RAW*%
X268840000Y-76600000D02*
X270485000Y-76600000D01*
%TO.N,GND*%
X265286200Y-106192000D02*
X265464200Y-106370000D01*
X263112800Y-84220000D02*
X263600001Y-84220000D01*
X268840000Y-79140000D02*
X270485000Y-79140000D01*
X270550000Y-113300000D02*
X270550000Y-112173300D01*
X261955000Y-81680000D02*
X263600000Y-81680000D01*
X265464200Y-106370000D02*
X265286200Y-106192000D01*
X257400000Y-119000000D02*
X258626700Y-120226700D01*
X258626700Y-120226700D02*
X269350000Y-120226700D01*
X269940000Y-111563300D02*
X270550000Y-112173300D01*
X269350000Y-120226700D02*
X270550000Y-119026700D01*
X270550000Y-119026700D02*
X270550000Y-117900000D01*
X265286200Y-106192000D02*
X265464200Y-106370000D01*
X261955000Y-84220000D02*
X263112800Y-84220000D01*
X269940000Y-108200000D02*
X269940000Y-111563300D01*
X270550000Y-117900000D02*
X270550000Y-113300000D01*
X263600001Y-84220000D02*
X265286200Y-85906199D01*
X263112800Y-84220000D02*
X263600000Y-84220000D01*
X257400000Y-112800000D02*
X257400000Y-119000000D01*
X265286200Y-85906199D02*
X265286200Y-106192000D01*
%TO.N,RST*%
X266190900Y-103298900D02*
X265737900Y-102845900D01*
X261100000Y-119000000D02*
X261100000Y-112800000D01*
X266190900Y-108591300D02*
X266190900Y-103298900D01*
X266190900Y-108591300D02*
X261982200Y-112800000D01*
X268840000Y-81680000D02*
X270485000Y-81680000D01*
X265737900Y-84782100D02*
X268840000Y-81680000D01*
X261982200Y-112800000D02*
X261100000Y-112800000D01*
X265737900Y-102845900D02*
X265737900Y-84782100D01*
%TO.N,VCC*%
X265450000Y-113300000D02*
X265450000Y-115673300D01*
X266550000Y-110226700D02*
X267400000Y-109376700D01*
X270485000Y-84220000D02*
X268840000Y-84220000D01*
X267400000Y-108788300D02*
X267400000Y-109376700D01*
X267191400Y-105658800D02*
X267400000Y-105867400D01*
X266550000Y-117900000D02*
X266550000Y-116773300D01*
X265450000Y-115673300D02*
X266550000Y-116773300D01*
X266550000Y-113300000D02*
X266550000Y-110226700D01*
X267191400Y-105414400D02*
X267191400Y-105658800D01*
X267191400Y-85868600D02*
X267191400Y-105414400D01*
X268840000Y-84220000D02*
X267191400Y-85868600D01*
X267400000Y-108788300D02*
X267400000Y-108200000D01*
X267400000Y-105867400D02*
X267400000Y-108200000D01*
%TO.N,P1*%
X261955000Y-76600000D02*
X263600000Y-76600000D01*
%TO.N,P0*%
X273550000Y-112173300D02*
X275076900Y-110646400D01*
X264888000Y-80428000D02*
X263600000Y-79140000D01*
X261955000Y-79140000D02*
X263600000Y-79140000D01*
X275076900Y-81145500D02*
X274359400Y-80428000D01*
X273550000Y-113300000D02*
X273550000Y-112173300D01*
X273550000Y-117900000D02*
X273550000Y-113300000D01*
X275076900Y-110646400D02*
X275076900Y-81145500D01*
X274359400Y-80428000D02*
X264888000Y-80428000D01*
%TO.N,P2*%
X264530700Y-90538100D02*
X264343600Y-90351000D01*
X264795300Y-105724700D02*
X264795300Y-90802700D01*
X262320000Y-108200000D02*
X264795300Y-105724700D01*
X264343600Y-87503600D02*
X263600000Y-86760000D01*
X261955000Y-86760000D02*
X263600000Y-86760000D01*
X264530700Y-90538100D02*
X264343600Y-90351000D01*
X264795300Y-90802700D02*
X264530700Y-90538100D01*
X264343600Y-90351000D02*
X264343600Y-87503600D01*
%TO.N,P3*%
X264343600Y-91215000D02*
X263600000Y-90471400D01*
X263058000Y-106194100D02*
X264343600Y-104908500D01*
X263600000Y-89300000D02*
X261955000Y-89300000D01*
X264343600Y-104908500D02*
X264343600Y-91215000D01*
X263600000Y-90471400D02*
X263600000Y-89300000D01*
X263058000Y-106398000D02*
X263058000Y-106194100D01*
%TO.N,P4*%
X261955000Y-91840000D02*
X263600000Y-91840000D01*
%TO.N,P5*%
X261955000Y-94380000D02*
X263600000Y-94380000D01*
%TO.N,P6*%
X261955000Y-96920000D02*
X263600000Y-96920000D01*
%TO.N,1*%
X258600000Y-76600000D02*
X260505000Y-76600000D01*
%TO.N,2*%
X258600000Y-79140000D02*
X260505000Y-79140000D01*
%TO.N,3*%
X258600000Y-81680000D02*
X260505000Y-81680000D01*
%TO.N,4*%
X258600000Y-84220000D02*
X260505000Y-84220000D01*
%TO.N,5*%
X258600000Y-86760000D02*
X260505000Y-86760000D01*
%TO.N,6*%
X258600000Y-89300000D02*
X260505000Y-89300000D01*
%TO.N,7*%
X258600000Y-91840000D02*
X260505000Y-91840000D01*
%TO.N,8*%
X258600000Y-94380000D02*
X260505000Y-94380000D01*
%TO.N,9*%
X258600000Y-96920000D02*
X260505000Y-96920000D01*
%TO.N,10*%
X258600000Y-99460000D02*
X260505000Y-99460000D01*
%TO.N,11*%
X258600000Y-102000000D02*
X260505000Y-102000000D01*
%TO.N,12*%
X258600000Y-104540000D02*
X260505000Y-104540000D01*
%TO.N,13*%
X271935000Y-104540000D02*
X273840000Y-104540000D01*
%TO.N,14*%
X271935000Y-102000000D02*
X273840000Y-102000000D01*
%TO.N,15*%
X271935000Y-99460000D02*
X273840000Y-99460000D01*
%TO.N,16*%
X271935000Y-96920000D02*
X273840000Y-96920000D01*
%TO.N,17*%
X271935000Y-94380000D02*
X273840000Y-94380000D01*
%TO.N,18*%
X271935000Y-91840000D02*
X273840000Y-91840000D01*
%TO.N,19*%
X271935000Y-89300000D02*
X273840000Y-89300000D01*
%TO.N,20*%
X271935000Y-86760000D02*
X273840000Y-86760000D01*
%TO.N,21*%
X271935000Y-84220000D02*
X273840000Y-84220000D01*
%TO.N,22*%
X271935000Y-81680000D02*
X273840000Y-81680000D01*
%TO.N,23*%
X271935000Y-79140000D02*
X273840000Y-79140000D01*
%TO.N,24*%
X271935000Y-76600000D02*
X273840000Y-76600000D01*
%TO.N,P9*%
X253905200Y-90310000D02*
X252335000Y-90310000D01*
X255300500Y-88914700D02*
X253905200Y-90310000D01*
%TD*%
M02*
