%TF.GenerationSoftware,KiCad,Pcbnew,9.0.3-1.fc42*%
%TF.CreationDate,2025-07-31T15:34:24-03:00*%
%TF.ProjectId,main_pcb,6d61696e-5f70-4636-922e-6b696361645f,v1.0.0*%
%TF.SameCoordinates,Original*%
%TF.FileFunction,Soldermask,Top*%
%TF.FilePolarity,Negative*%
%FSLAX46Y46*%
G04 Gerber Fmt 4.6, Leading zero omitted, Abs format (unit mm)*
G04 Created by KiCad (PCBNEW 9.0.3-1.fc42) date 2025-07-31 15:34:24*
%MOMM*%
%LPD*%
G01*
G04 APERTURE LIST*
G04 Aperture macros list*
%AMRoundRect*
0 Rectangle with rounded corners*
0 $1 Rounding radius*
0 $2 $3 $4 $5 $6 $7 $8 $9 X,Y pos of 4 corners*
0 Add a 4 corners polygon primitive as box body*
4,1,4,$2,$3,$4,$5,$6,$7,$8,$9,$2,$3,0*
0 Add four circle primitives for the rounded corners*
1,1,$1+$1,$2,$3*
1,1,$1+$1,$4,$5*
1,1,$1+$1,$6,$7*
1,1,$1+$1,$8,$9*
0 Add four rect primitives between the rounded corners*
20,1,$1+$1,$2,$3,$4,$5,0*
20,1,$1+$1,$4,$5,$6,$7,0*
20,1,$1+$1,$6,$7,$8,$9,0*
20,1,$1+$1,$8,$9,$2,$3,0*%
%AMFreePoly0*
4,1,16,0.535355,0.785355,0.541603,0.777735,1.041603,0.027735,1.049029,-0.009806,1.041603,-0.027735,0.541603,-0.777735,0.509806,-0.799029,0.500000,-0.800000,-0.500000,-0.800000,-0.535355,-0.785355,-0.550000,-0.750000,-0.550000,0.750000,-0.535355,0.785355,-0.500000,0.800000,0.500000,0.800000,0.535355,0.785355,0.535355,0.785355,$1*%
%AMFreePoly1*
4,1,16,0.535355,0.785355,0.550000,0.750000,0.550000,-0.750000,0.535355,-0.785355,0.500000,-0.800000,-0.650000,-0.800000,-0.685355,-0.785355,-0.700000,-0.750000,-0.691603,-0.722265,-0.210093,0.000000,-0.691603,0.722265,-0.699029,0.759806,-0.677735,0.791603,-0.650000,0.800000,0.500000,0.800000,0.535355,0.785355,0.535355,0.785355,$1*%
G04 Aperture macros list end*
%ADD10RoundRect,0.050000X0.550000X-0.900000X0.550000X0.900000X-0.550000X0.900000X-0.550000X-0.900000X0*%
%ADD11RoundRect,0.050000X-0.889000X-0.889000X0.889000X-0.889000X0.889000X0.889000X-0.889000X0.889000X0*%
%ADD12RoundRect,0.050000X-0.450000X-0.600000X0.450000X-0.600000X0.450000X0.600000X-0.450000X0.600000X0*%
%ADD13C,2.005000*%
%ADD14C,1.801800*%
%ADD15C,3.100000*%
%ADD16C,4.087800*%
%ADD17RoundRect,0.050000X-1.785445X0.017678X0.017678X-1.785445X1.785445X-0.017678X-0.017678X1.785445X0*%
%ADD18RoundRect,0.050000X-1.275000X-1.250000X1.275000X-1.250000X1.275000X1.250000X-1.275000X1.250000X0*%
%ADD19C,1.852600*%
%ADD20FreePoly0,0.000000*%
%ADD21FreePoly1,0.000000*%
%ADD22FreePoly1,180.000000*%
%ADD23FreePoly0,180.000000*%
%ADD24C,0.900000*%
%ADD25RoundRect,0.050000X-1.257236X0.000000X0.000000X-1.257236X1.257236X0.000000X0.000000X1.257236X0*%
%ADD26RoundRect,0.050000X-0.742462X-0.106066X-0.106066X-0.742462X0.742462X0.106066X0.106066X0.742462X0*%
%ADD27C,1.600000*%
%ADD28O,2.300000X1.700000*%
%ADD29C,0.800000*%
%ADD30C,4.500000*%
%ADD31RoundRect,0.050000X-0.850000X-0.850000X0.850000X-0.850000X0.850000X0.850000X-0.850000X0.850000X0*%
%ADD32O,1.800000X1.800000*%
G04 APERTURE END LIST*
D10*
%TO.C,B1*%
X257400000Y-119000000D03*
X257400000Y-112800000D03*
X261100000Y-119000000D03*
X261100000Y-112800000D03*
%TD*%
D11*
%TO.C,D9*%
X184290000Y-147000000D03*
D12*
X186450000Y-147000000D03*
X189750000Y-147000000D03*
D13*
X191910000Y-147000000D03*
%TD*%
D11*
%TO.C,D4*%
X146190000Y-97850000D03*
D12*
X148350000Y-97850000D03*
X151650000Y-97850000D03*
D13*
X153810000Y-97850000D03*
%TD*%
D11*
%TO.C,D24*%
X241440000Y-97850000D03*
D12*
X243600000Y-97850000D03*
X246900000Y-97850000D03*
D13*
X249060000Y-97850000D03*
%TD*%
D11*
%TO.C,D18*%
X222390000Y-127950000D03*
D12*
X224550000Y-127950000D03*
X227850000Y-127950000D03*
D13*
X230010000Y-127950000D03*
%TD*%
D11*
%TO.C,D13*%
X203340000Y-139000000D03*
D12*
X205500000Y-139000000D03*
X208800000Y-139000000D03*
D13*
X210960000Y-139000000D03*
%TD*%
D14*
%TO.C,S26*%
X248393098Y-191613498D03*
D15*
X251087174Y-190715472D03*
X253781251Y-189817446D03*
D16*
X251985200Y-195205600D03*
D15*
X257373354Y-193409549D03*
X256475328Y-196103626D03*
D14*
X255577302Y-198797702D03*
D17*
X258791103Y-198419400D03*
X251446385Y-187482580D03*
%TD*%
D14*
%TO.C,S22*%
X240170000Y-130950000D03*
D15*
X241440000Y-128410000D03*
X242710000Y-125870000D03*
D16*
X245250000Y-130950000D03*
D15*
X247790000Y-125870000D03*
X249060000Y-128410000D03*
D14*
X250330000Y-130950000D03*
D18*
X252335000Y-128410000D03*
X239408000Y-125870000D03*
%TD*%
D14*
%TO.C,S12*%
X183020000Y-84850000D03*
D15*
X184290000Y-82310000D03*
X185560000Y-79770000D03*
D16*
X188100000Y-84850000D03*
D15*
X190640000Y-79770000D03*
X191910000Y-82310000D03*
D14*
X193180000Y-84850000D03*
D18*
X195185000Y-82310000D03*
X182258000Y-79770000D03*
%TD*%
D14*
%TO.C,S11*%
X183020000Y-103900000D03*
D15*
X184290000Y-101360000D03*
X185560000Y-98820000D03*
D16*
X188100000Y-103900000D03*
D15*
X190640000Y-98820000D03*
X191910000Y-101360000D03*
D14*
X193180000Y-103900000D03*
D18*
X195185000Y-101360000D03*
X182258000Y-98820000D03*
%TD*%
D19*
%TO.C,MCU1*%
X258599997Y-86759999D03*
X258599999Y-79140001D03*
X258599999Y-91840001D03*
X258599999Y-96919999D03*
X258599999Y-99459995D03*
X258600000Y-94380000D03*
X258600000Y-102000000D03*
X258600001Y-81679999D03*
X258600001Y-84220001D03*
X258600001Y-89300000D03*
X258600008Y-104539999D03*
X258600015Y-76600002D03*
D20*
X260504999Y-76600000D03*
X260504999Y-94380001D03*
X260504999Y-99459997D03*
X260504999Y-104540003D03*
X260505000Y-79140001D03*
X260505000Y-81680000D03*
X260505000Y-84219999D03*
X260505000Y-102000000D03*
X260505001Y-86760000D03*
X260505001Y-91839999D03*
X260505003Y-89300001D03*
X260505003Y-96920001D03*
D21*
X261954993Y-94380000D03*
X261954994Y-81680002D03*
X261954995Y-99460000D03*
X261954995Y-104539999D03*
X261954996Y-76600000D03*
X261954996Y-84220000D03*
X261954996Y-91840000D03*
X261954996Y-96920000D03*
X261954996Y-101999999D03*
X261954997Y-79140001D03*
X261954997Y-89300000D03*
X261954998Y-86760008D03*
D22*
X270484993Y-91839986D03*
X270484994Y-79139999D03*
X270484994Y-84219999D03*
X270484994Y-89300007D03*
X270484994Y-96920000D03*
X270484994Y-99460000D03*
X270484994Y-104540000D03*
X270484995Y-76600000D03*
X270484995Y-81680001D03*
X270484995Y-101999999D03*
X270484996Y-94380000D03*
X270485001Y-86760000D03*
D23*
X271934997Y-84219999D03*
X271934997Y-91839999D03*
X271934999Y-89300001D03*
X271934999Y-94380000D03*
X271935000Y-79140000D03*
X271935000Y-96920001D03*
X271935000Y-99460000D03*
X271935000Y-101999999D03*
X271935001Y-76599997D03*
X271935001Y-81680003D03*
X271935001Y-86759999D03*
X271935001Y-104540000D03*
D19*
X273839985Y-104539998D03*
X273839992Y-76600001D03*
X273839999Y-91840000D03*
X273839999Y-96919999D03*
X273839999Y-99460001D03*
X273840000Y-79140000D03*
X273840000Y-86760000D03*
X273840001Y-81680005D03*
X273840001Y-84220001D03*
X273840001Y-89299999D03*
X273840001Y-101999999D03*
X273840003Y-94380001D03*
D24*
X268840000Y-76599999D03*
X263599997Y-81680004D03*
X263600000Y-84219999D03*
X268840003Y-79140004D03*
X263600001Y-79139999D03*
X263600000Y-76600000D03*
X263599999Y-86760000D03*
X263599999Y-89300001D03*
X263600000Y-91840000D03*
X263600001Y-94379999D03*
X263600001Y-96920000D03*
X263600001Y-99459999D03*
X263599997Y-101999996D03*
X263600000Y-104540001D03*
X268840000Y-104540000D03*
X268840003Y-99459996D03*
X268840000Y-96920001D03*
X268839999Y-102000001D03*
X268840001Y-94380000D03*
X268840001Y-91839999D03*
X268840000Y-89300000D03*
X268839999Y-86760001D03*
X268839999Y-81680001D03*
X268839999Y-84220000D03*
%TD*%
D14*
%TO.C,S9*%
X183020000Y-142000000D03*
D15*
X184290000Y-139460000D03*
X185560000Y-136920000D03*
D16*
X188100000Y-142000000D03*
D15*
X190640000Y-136920000D03*
X191910000Y-139460000D03*
D14*
X193180000Y-142000000D03*
D18*
X195185000Y-139460000D03*
X182258000Y-136920000D03*
%TD*%
D11*
%TO.C,D22*%
X241440000Y-135950000D03*
D12*
X243600000Y-135950000D03*
X246900000Y-135950000D03*
D13*
X249060000Y-135950000D03*
%TD*%
D11*
%TO.C,D5*%
X165240000Y-155000000D03*
D12*
X167400000Y-155000000D03*
X170700000Y-155000000D03*
D13*
X172860000Y-155000000D03*
%TD*%
D14*
%TO.C,S4*%
X144920000Y-92850000D03*
D15*
X146190000Y-90310000D03*
X147460000Y-87770000D03*
D16*
X150000000Y-92850000D03*
D15*
X152540000Y-87770000D03*
X153810000Y-90310000D03*
D14*
X155080000Y-92850000D03*
D18*
X157085000Y-90310000D03*
X144158000Y-87770000D03*
%TD*%
D14*
%TO.C,S20*%
X221120000Y-84850000D03*
D15*
X222390000Y-82310000D03*
X223660000Y-79770000D03*
D16*
X226200000Y-84850000D03*
D15*
X228740000Y-79770000D03*
X230010000Y-82310000D03*
D14*
X231280000Y-84850000D03*
D18*
X233285000Y-82310000D03*
X220358000Y-79770000D03*
%TD*%
D14*
%TO.C,S15*%
X202070000Y-95900000D03*
D15*
X203340000Y-93360000D03*
X204610000Y-90820000D03*
D16*
X207150000Y-95900000D03*
D15*
X209690000Y-90820000D03*
X210960000Y-93360000D03*
D14*
X212230000Y-95900000D03*
D18*
X214235000Y-93360000D03*
X201308000Y-90820000D03*
%TD*%
D25*
%TO.C,D25*%
X239020423Y-175841423D03*
D26*
X240547774Y-177368774D03*
X242881226Y-179702226D03*
D13*
X244408577Y-181229577D03*
%TD*%
D11*
%TO.C,D11*%
X184290000Y-108900000D03*
D12*
X186450000Y-108900000D03*
X189750000Y-108900000D03*
D13*
X191910000Y-108900000D03*
%TD*%
D11*
%TO.C,D1*%
X146190000Y-155000000D03*
D12*
X148350000Y-155000000D03*
X151650000Y-155000000D03*
D13*
X153810000Y-155000000D03*
%TD*%
D11*
%TO.C,D20*%
X222390000Y-89850000D03*
D12*
X224550000Y-89850000D03*
X227850000Y-89850000D03*
D13*
X230010000Y-89850000D03*
%TD*%
D14*
%TO.C,S5*%
X163970000Y-150000000D03*
D15*
X165240000Y-147460000D03*
X166510000Y-144920000D03*
D16*
X169050000Y-150000000D03*
D15*
X171590000Y-144920000D03*
X172860000Y-147460000D03*
D14*
X174130000Y-150000000D03*
D18*
X176135000Y-147460000D03*
X163208000Y-144920000D03*
%TD*%
D11*
%TO.C,D19*%
X222390000Y-108900000D03*
D12*
X224550000Y-108900000D03*
X227850000Y-108900000D03*
D13*
X230010000Y-108900000D03*
%TD*%
D11*
%TO.C,D14*%
X203340000Y-119950000D03*
D12*
X205500000Y-119950000D03*
X208800000Y-119950000D03*
D13*
X210960000Y-119950000D03*
%TD*%
D14*
%TO.C,S8*%
X163970000Y-92850000D03*
D15*
X165240000Y-90310000D03*
X166510000Y-87770000D03*
D16*
X169050000Y-92850000D03*
D15*
X171590000Y-87770000D03*
X172860000Y-90310000D03*
D14*
X174130000Y-92850000D03*
D18*
X176135000Y-90310000D03*
X163208000Y-87770000D03*
%TD*%
D14*
%TO.C,S10*%
X183020000Y-122950000D03*
D15*
X184290000Y-120410000D03*
X185560000Y-117870000D03*
D16*
X188100000Y-122950000D03*
D15*
X190640000Y-117870000D03*
X191910000Y-120410000D03*
D14*
X193180000Y-122950000D03*
D18*
X195185000Y-120410000D03*
X182258000Y-117870000D03*
%TD*%
D11*
%TO.C,D17*%
X222390000Y-147000000D03*
D12*
X224550000Y-147000000D03*
X227850000Y-147000000D03*
D13*
X230010000Y-147000000D03*
%TD*%
D11*
%TO.C,D7*%
X165240000Y-116900000D03*
D12*
X167400000Y-116900000D03*
X170700000Y-116900000D03*
D13*
X172860000Y-116900000D03*
%TD*%
D11*
%TO.C,D12*%
X184290000Y-89850000D03*
D12*
X186450000Y-89850000D03*
X189750000Y-89850000D03*
D13*
X191910000Y-89850000D03*
%TD*%
D25*
%TO.C,D26*%
X245755623Y-196047023D03*
D26*
X247282974Y-197574374D03*
X249616426Y-199907826D03*
D13*
X251143777Y-201435177D03*
%TD*%
D27*
%TO.C,TRRS1*%
X275150000Y-115600000D03*
X268150000Y-115600000D03*
D28*
X265450000Y-113300000D03*
X265450000Y-117900000D03*
X266550000Y-113300000D03*
X266550000Y-117900000D03*
X270550000Y-113300000D03*
X270550000Y-117900000D03*
X273550000Y-113300000D03*
X273550000Y-117900000D03*
%TD*%
D14*
%TO.C,S19*%
X221120000Y-103900000D03*
D15*
X222390000Y-101360000D03*
X223660000Y-98820000D03*
D16*
X226200000Y-103900000D03*
D15*
X228740000Y-98820000D03*
X230010000Y-101360000D03*
D14*
X231280000Y-103900000D03*
D18*
X233285000Y-101360000D03*
X220358000Y-98820000D03*
%TD*%
D11*
%TO.C,D16*%
X203340000Y-81850000D03*
D12*
X205500000Y-81850000D03*
X208800000Y-81850000D03*
D13*
X210960000Y-81850000D03*
%TD*%
D14*
%TO.C,S1*%
X144920000Y-150000000D03*
D15*
X146190000Y-147460000D03*
X147460000Y-144920000D03*
D16*
X150000000Y-150000000D03*
D15*
X152540000Y-144920000D03*
X153810000Y-147460000D03*
D14*
X155080000Y-150000000D03*
D18*
X157085000Y-147460000D03*
X144158000Y-144920000D03*
%TD*%
D14*
%TO.C,S6*%
X163970000Y-130950000D03*
D15*
X165240000Y-128410000D03*
X166510000Y-125870000D03*
D16*
X169050000Y-130950000D03*
D15*
X171590000Y-125870000D03*
X172860000Y-128410000D03*
D14*
X174130000Y-130950000D03*
D18*
X176135000Y-128410000D03*
X163208000Y-125870000D03*
%TD*%
D14*
%TO.C,S7*%
X163970000Y-111900000D03*
D15*
X165240000Y-109360000D03*
X166510000Y-106820000D03*
D16*
X169050000Y-111900000D03*
D15*
X171590000Y-106820000D03*
X172860000Y-109360000D03*
D14*
X174130000Y-111900000D03*
D18*
X176135000Y-109360000D03*
X163208000Y-106820000D03*
%TD*%
D11*
%TO.C,D10*%
X184290000Y-127950000D03*
D12*
X186450000Y-127950000D03*
X189750000Y-127950000D03*
D13*
X191910000Y-127950000D03*
%TD*%
D14*
%TO.C,S16*%
X202070000Y-76850000D03*
D15*
X203340000Y-74310000D03*
X204610000Y-71770000D03*
D16*
X207150000Y-76850000D03*
D15*
X209690000Y-71770000D03*
X210960000Y-74310000D03*
D14*
X212230000Y-76850000D03*
D18*
X214235000Y-74310000D03*
X201308000Y-71770000D03*
%TD*%
D14*
%TO.C,S17*%
X221120000Y-142000000D03*
D15*
X222390000Y-139460000D03*
X223660000Y-136920000D03*
D16*
X226200000Y-142000000D03*
D15*
X228740000Y-136920000D03*
X230010000Y-139460000D03*
D14*
X231280000Y-142000000D03*
D18*
X233285000Y-139460000D03*
X220358000Y-136920000D03*
%TD*%
D14*
%TO.C,S13*%
X202070000Y-134000000D03*
D15*
X203340000Y-131460000D03*
X204610000Y-128920000D03*
D16*
X207150000Y-134000000D03*
D15*
X209690000Y-128920000D03*
X210960000Y-131460000D03*
D14*
X212230000Y-134000000D03*
D18*
X214235000Y-131460000D03*
X201308000Y-128920000D03*
%TD*%
D14*
%TO.C,S18*%
X221120000Y-122950000D03*
D15*
X222390000Y-120410000D03*
X223660000Y-117870000D03*
D16*
X226200000Y-122950000D03*
D15*
X228740000Y-117870000D03*
X230010000Y-120410000D03*
D14*
X231280000Y-122950000D03*
D18*
X233285000Y-120410000D03*
X220358000Y-117870000D03*
%TD*%
D29*
%TO.C,_3*%
X243600000Y-80086500D03*
X244083274Y-78919774D03*
X244083274Y-81253226D03*
X245250000Y-78436500D03*
D30*
X245250000Y-80086500D03*
D29*
X245250000Y-81736500D03*
X246416726Y-78919774D03*
X246416726Y-81253226D03*
X246900000Y-80086500D03*
%TD*%
D11*
%TO.C,D6*%
X165240000Y-135950000D03*
D12*
X167400000Y-135950000D03*
X170700000Y-135950000D03*
D13*
X172860000Y-135950000D03*
%TD*%
D14*
%TO.C,S21*%
X240170000Y-150000000D03*
D15*
X241440000Y-147460000D03*
X242710000Y-144920000D03*
D16*
X245250000Y-150000000D03*
D15*
X247790000Y-144920000D03*
X249060000Y-147460000D03*
D14*
X250330000Y-150000000D03*
D18*
X252335000Y-147460000D03*
X239408000Y-144920000D03*
%TD*%
D11*
%TO.C,D3*%
X146190000Y-116900000D03*
D12*
X148350000Y-116900000D03*
X151650000Y-116900000D03*
D13*
X153810000Y-116900000D03*
%TD*%
D11*
%TO.C,D2*%
X146190000Y-135950000D03*
D12*
X148350000Y-135950000D03*
X151650000Y-135950000D03*
D13*
X153810000Y-135950000D03*
%TD*%
D11*
%TO.C,D21*%
X241440000Y-155000000D03*
D12*
X243600000Y-155000000D03*
X246900000Y-155000000D03*
D13*
X249060000Y-155000000D03*
%TD*%
D14*
%TO.C,S25*%
X241657898Y-171407898D03*
D15*
X244351974Y-170509872D03*
X247046051Y-169611846D03*
D16*
X245250000Y-175000000D03*
D15*
X250638154Y-173203949D03*
X249740128Y-175898026D03*
D14*
X248842102Y-178592102D03*
D17*
X252055903Y-178213800D03*
X244711185Y-167276980D03*
%TD*%
D11*
%TO.C,D23*%
X241440000Y-116900000D03*
D12*
X243600000Y-116900000D03*
X246900000Y-116900000D03*
D13*
X249060000Y-116900000D03*
%TD*%
D14*
%TO.C,S23*%
X240170000Y-111900000D03*
D15*
X241440000Y-109360000D03*
X242710000Y-106820000D03*
D16*
X245250000Y-111900000D03*
D15*
X247790000Y-106820000D03*
X249060000Y-109360000D03*
D14*
X250330000Y-111900000D03*
D18*
X252335000Y-109360000D03*
X239408000Y-106820000D03*
%TD*%
D29*
%TO.C,_4*%
X243600000Y-160858500D03*
X244083274Y-159691774D03*
X244083274Y-162025226D03*
X245250000Y-159208500D03*
D30*
X245250000Y-160858500D03*
D29*
X245250000Y-162508500D03*
X246416726Y-159691774D03*
X246416726Y-162025226D03*
X246900000Y-160858500D03*
%TD*%
D14*
%TO.C,S3*%
X144920000Y-111900000D03*
D15*
X146190000Y-109360000D03*
X147460000Y-106820000D03*
D16*
X150000000Y-111900000D03*
D15*
X152540000Y-106820000D03*
X153810000Y-109360000D03*
D14*
X155080000Y-111900000D03*
D18*
X157085000Y-109360000D03*
X144158000Y-106820000D03*
%TD*%
D29*
%TO.C,_1*%
X157875000Y-102375000D03*
X158358274Y-101208274D03*
X158358274Y-103541726D03*
X159525000Y-100725000D03*
D30*
X159525000Y-102375000D03*
D29*
X159525000Y-104025000D03*
X160691726Y-101208274D03*
X160691726Y-103541726D03*
X161175000Y-102375000D03*
%TD*%
D14*
%TO.C,S14*%
X202070000Y-114950000D03*
D15*
X203340000Y-112410000D03*
X204610000Y-109870000D03*
D16*
X207150000Y-114950000D03*
D15*
X209690000Y-109870000D03*
X210960000Y-112410000D03*
D14*
X212230000Y-114950000D03*
D18*
X214235000Y-112410000D03*
X201308000Y-109870000D03*
%TD*%
D31*
%TO.C,OLED1*%
X269940000Y-108200000D03*
D32*
X267400000Y-108200000D03*
X264860000Y-108200000D03*
X262320000Y-108200000D03*
%TD*%
D14*
%TO.C,S2*%
X144920000Y-130950000D03*
D15*
X146190000Y-128410000D03*
X147460000Y-125870000D03*
D16*
X150000000Y-130950000D03*
D15*
X152540000Y-125870000D03*
X153810000Y-128410000D03*
D14*
X155080000Y-130950000D03*
D18*
X157085000Y-128410000D03*
X144158000Y-125870000D03*
%TD*%
D29*
%TO.C,_2*%
X157875000Y-140475000D03*
X158358274Y-139308274D03*
X158358274Y-141641726D03*
X159525000Y-138825000D03*
D30*
X159525000Y-140475000D03*
D29*
X159525000Y-142125000D03*
X160691726Y-139308274D03*
X160691726Y-141641726D03*
X161175000Y-140475000D03*
%TD*%
D11*
%TO.C,D8*%
X165240000Y-97850000D03*
D12*
X167400000Y-97850000D03*
X170700000Y-97850000D03*
D13*
X172860000Y-97850000D03*
%TD*%
D11*
%TO.C,D15*%
X203340000Y-100900000D03*
D12*
X205500000Y-100900000D03*
X208800000Y-100900000D03*
D13*
X210960000Y-100900000D03*
%TD*%
D14*
%TO.C,S24*%
X240170000Y-92850000D03*
D15*
X241440000Y-90310000D03*
X242710000Y-87770000D03*
D16*
X245250000Y-92850000D03*
D15*
X247790000Y-87770000D03*
X249060000Y-90310000D03*
D14*
X250330000Y-92850000D03*
D18*
X252335000Y-90310000D03*
X239408000Y-87770000D03*
%TD*%
M02*
