%TF.GenerationSoftware,KiCad,Pcbnew,9.0.3-1.fc42*%
%TF.CreationDate,2025-07-31T15:34:24-03:00*%
%TF.ProjectId,main_pcb,6d61696e-5f70-4636-922e-6b696361645f,v1.0.0*%
%TF.SameCoordinates,Original*%
%TF.FileFunction,Paste,Top*%
%TF.FilePolarity,Positive*%
%FSLAX46Y46*%
G04 Gerber Fmt 4.6, Leading zero omitted, Abs format (unit mm)*
G04 Created by KiCad (PCBNEW 9.0.3-1.fc42) date 2025-07-31 15:34:24*
%MOMM*%
%LPD*%
G01*
G04 APERTURE LIST*
G04 Aperture macros list*
%AMRotRect*
0 Rectangle, with rotation*
0 The origin of the aperture is its center*
0 $1 length*
0 $2 width*
0 $3 Rotation angle, in degrees counterclockwise*
0 Add horizontal line*
21,1,$1,$2,0,0,$3*%
G04 Aperture macros list end*
%ADD10R,1.100000X1.800000*%
%ADD11R,0.900000X1.200000*%
%ADD12RotRect,2.550000X2.500000X315.000000*%
%ADD13R,2.550000X2.500000*%
%ADD14RotRect,0.900000X1.200000X315.000000*%
G04 APERTURE END LIST*
D10*
%TO.C,B1*%
X257400000Y-119000000D03*
X257400000Y-112800000D03*
X261100000Y-119000000D03*
X261100000Y-112800000D03*
%TD*%
D11*
%TO.C,D9*%
X186450000Y-147000000D03*
X189750000Y-147000000D03*
%TD*%
%TO.C,D4*%
X148350000Y-97850000D03*
X151650000Y-97850000D03*
%TD*%
%TO.C,D24*%
X243600000Y-97850000D03*
X246900000Y-97850000D03*
%TD*%
%TO.C,D18*%
X224550000Y-127950000D03*
X227850000Y-127950000D03*
%TD*%
%TO.C,D13*%
X205500000Y-139000000D03*
X208800000Y-139000000D03*
%TD*%
D12*
%TO.C,S26*%
X258791103Y-198419400D03*
X251446385Y-187482580D03*
%TD*%
D13*
%TO.C,S22*%
X252335000Y-128410000D03*
X239408000Y-125870000D03*
%TD*%
%TO.C,S12*%
X195185000Y-82310000D03*
X182258000Y-79770000D03*
%TD*%
%TO.C,S11*%
X195185000Y-101360000D03*
X182258000Y-98820000D03*
%TD*%
%TO.C,S9*%
X195185000Y-139460000D03*
X182258000Y-136920000D03*
%TD*%
D11*
%TO.C,D22*%
X243600000Y-135950000D03*
X246900000Y-135950000D03*
%TD*%
%TO.C,D5*%
X167400000Y-155000000D03*
X170700000Y-155000000D03*
%TD*%
D13*
%TO.C,S4*%
X157085000Y-90310000D03*
X144158000Y-87770000D03*
%TD*%
%TO.C,S20*%
X233285000Y-82310000D03*
X220358000Y-79770000D03*
%TD*%
%TO.C,S15*%
X214235000Y-93360000D03*
X201308000Y-90820000D03*
%TD*%
D14*
%TO.C,D25*%
X240547774Y-177368774D03*
X242881226Y-179702226D03*
%TD*%
D11*
%TO.C,D11*%
X186450000Y-108900000D03*
X189750000Y-108900000D03*
%TD*%
%TO.C,D1*%
X148350000Y-155000000D03*
X151650000Y-155000000D03*
%TD*%
%TO.C,D20*%
X224550000Y-89850000D03*
X227850000Y-89850000D03*
%TD*%
D13*
%TO.C,S5*%
X176135000Y-147460000D03*
X163208000Y-144920000D03*
%TD*%
D11*
%TO.C,D19*%
X224550000Y-108900000D03*
X227850000Y-108900000D03*
%TD*%
%TO.C,D14*%
X205500000Y-119950000D03*
X208800000Y-119950000D03*
%TD*%
D13*
%TO.C,S8*%
X176135000Y-90310000D03*
X163208000Y-87770000D03*
%TD*%
%TO.C,S10*%
X195185000Y-120410000D03*
X182258000Y-117870000D03*
%TD*%
D11*
%TO.C,D17*%
X224550000Y-147000000D03*
X227850000Y-147000000D03*
%TD*%
%TO.C,D7*%
X167400000Y-116900000D03*
X170700000Y-116900000D03*
%TD*%
%TO.C,D12*%
X186450000Y-89850000D03*
X189750000Y-89850000D03*
%TD*%
D14*
%TO.C,D26*%
X247282974Y-197574374D03*
X249616426Y-199907826D03*
%TD*%
D13*
%TO.C,S19*%
X233285000Y-101360000D03*
X220358000Y-98820000D03*
%TD*%
D11*
%TO.C,D16*%
X205500000Y-81850000D03*
X208800000Y-81850000D03*
%TD*%
D13*
%TO.C,S1*%
X157085000Y-147460000D03*
X144158000Y-144920000D03*
%TD*%
%TO.C,S6*%
X176135000Y-128410000D03*
X163208000Y-125870000D03*
%TD*%
%TO.C,S7*%
X176135000Y-109360000D03*
X163208000Y-106820000D03*
%TD*%
D11*
%TO.C,D10*%
X186450000Y-127950000D03*
X189750000Y-127950000D03*
%TD*%
D13*
%TO.C,S16*%
X214235000Y-74310000D03*
X201308000Y-71770000D03*
%TD*%
%TO.C,S17*%
X233285000Y-139460000D03*
X220358000Y-136920000D03*
%TD*%
%TO.C,S13*%
X214235000Y-131460000D03*
X201308000Y-128920000D03*
%TD*%
%TO.C,S18*%
X233285000Y-120410000D03*
X220358000Y-117870000D03*
%TD*%
D11*
%TO.C,D6*%
X167400000Y-135950000D03*
X170700000Y-135950000D03*
%TD*%
D13*
%TO.C,S21*%
X252335000Y-147460000D03*
X239408000Y-144920000D03*
%TD*%
D11*
%TO.C,D3*%
X148350000Y-116900000D03*
X151650000Y-116900000D03*
%TD*%
%TO.C,D2*%
X148350000Y-135950000D03*
X151650000Y-135950000D03*
%TD*%
%TO.C,D21*%
X243600000Y-155000000D03*
X246900000Y-155000000D03*
%TD*%
D12*
%TO.C,S25*%
X252055903Y-178213800D03*
X244711185Y-167276980D03*
%TD*%
D11*
%TO.C,D23*%
X243600000Y-116900000D03*
X246900000Y-116900000D03*
%TD*%
D13*
%TO.C,S23*%
X252335000Y-109360000D03*
X239408000Y-106820000D03*
%TD*%
%TO.C,S3*%
X157085000Y-109360000D03*
X144158000Y-106820000D03*
%TD*%
%TO.C,S14*%
X214235000Y-112410000D03*
X201308000Y-109870000D03*
%TD*%
%TO.C,S2*%
X157085000Y-128410000D03*
X144158000Y-125870000D03*
%TD*%
D11*
%TO.C,D8*%
X167400000Y-97850000D03*
X170700000Y-97850000D03*
%TD*%
%TO.C,D15*%
X205500000Y-100900000D03*
X208800000Y-100900000D03*
%TD*%
D13*
%TO.C,S24*%
X252335000Y-90310000D03*
X239408000Y-87770000D03*
%TD*%
M02*
