M48
; DRILL file {KiCad 9.0.3-1.fc42} date 2025-07-31T15:34:22-0300
; FORMAT={-:-/ absolute / metric / decimal}
; #@! TF.CreationDate,2025-07-31T15:34:22-03:00
; #@! TF.GenerationSoftware,Kicad,Pcbnew,9.0.3-1.fc42
; #@! TF.FileFunction,Plated,1,2,PTH
FMAT,2
METRIC
; #@! TA.AperFunction,Plated,PTH,ViaDrill
T1C0.400
; #@! TA.AperFunction,Plated,PTH,ComponentDrill
T2C0.400
; #@! TA.AperFunction,Plated,PTH,ComponentDrill
T3C0.900
; #@! TA.AperFunction,Plated,PTH,ComponentDrill
T4C0.991
; #@! TA.AperFunction,Plated,PTH,ComponentDrill
T5C1.000
; #@! TA.AperFunction,Plated,PTH,ComponentDrill
T6C1.092
; #@! TA.AperFunction,Plated,PTH,ComponentDrill
T7C2.200
%
G90
G05
T1
X156.94Y-138.411
X159.305Y-105.695
X173.116Y-94.697
X173.116Y-113.823
X176.095Y-85.369
X176.135Y-131.351
X176.239Y-150.457
X176.465Y-111.411
X179.322Y-146.206
X194.374Y-143.221
X195.185Y-94.217
X195.458Y-122.935
X195.732Y-142.458
X196.2Y-79.119
X202.625Y-88.566
X207.15Y-107.466
X213.315Y-117.258
X213.699Y-88.894
X215.125Y-125.94
X223.92Y-95.579
X233.814Y-103.412
X234.086Y-94.217
X235.061Y-142.457
X235.061Y-166.202
X235.186Y-117.686
X235.807Y-82.219
X240.249Y-100.504
X244.084Y-99.767
X250.103Y-114.248
X252.335Y-121.6
X252.335Y-141.939
X252.682Y-95.572
X253.061Y-172.618
X255.3Y-88.915
X256.22Y-154.205
X259.491Y-187.28
X263.058Y-106.398
X264.892Y-119.401
X265.464Y-106.37
X266.465Y-102.0
X268.87Y-82.725
T2
X157.875Y-102.375
X157.875Y-140.475
X158.358Y-101.208
X158.358Y-103.542
X158.358Y-139.308
X158.358Y-141.642
X159.525Y-100.725
X159.525Y-104.025
X159.525Y-138.825
X159.525Y-142.125
X160.692Y-101.208
X160.692Y-103.542
X160.692Y-139.308
X160.692Y-141.642
X161.175Y-102.375
X161.175Y-140.475
X243.6Y-80.087
X243.6Y-160.858
X244.083Y-78.92
X244.083Y-81.253
X244.083Y-159.692
X244.083Y-162.025
X245.25Y-78.436
X245.25Y-81.736
X245.25Y-159.208
X245.25Y-162.508
X246.417Y-78.92
X246.417Y-81.253
X246.417Y-159.692
X246.417Y-162.025
X246.9Y-80.087
X246.9Y-160.858
X263.6Y-81.68
X263.6Y-102.0
X263.6Y-86.76
X263.6Y-89.3
X263.6Y-76.6
X263.6Y-84.22
X263.6Y-91.84
X263.6Y-104.54
X263.6Y-79.14
X263.6Y-94.38
X263.6Y-96.92
X263.6Y-99.46
X268.84Y-81.68
X268.84Y-84.22
X268.84Y-86.76
X268.84Y-102.0
X268.84Y-76.6
X268.84Y-89.3
X268.84Y-96.92
X268.84Y-104.54
X268.84Y-91.84
X268.84Y-94.38
X268.84Y-79.14
X268.84Y-99.46
T4
X146.19Y-97.85
X146.19Y-116.9
X146.19Y-135.95
X146.19Y-155.0
X153.81Y-97.85
X153.81Y-116.9
X153.81Y-135.95
X153.81Y-155.0
X165.24Y-97.85
X165.24Y-116.9
X165.24Y-135.95
X165.24Y-155.0
X172.86Y-97.85
X172.86Y-116.9
X172.86Y-135.95
X172.86Y-155.0
X184.29Y-89.85
X184.29Y-108.9
X184.29Y-127.95
X184.29Y-147.0
X191.91Y-89.85
X191.91Y-108.9
X191.91Y-127.95
X191.91Y-147.0
X203.34Y-81.85
X203.34Y-100.9
X203.34Y-119.95
X203.34Y-139.0
X210.96Y-81.85
X210.96Y-100.9
X210.96Y-119.95
X210.96Y-139.0
X222.39Y-89.85
X222.39Y-108.9
X222.39Y-127.95
X222.39Y-147.0
X230.01Y-89.85
X230.01Y-108.9
X230.01Y-127.95
X230.01Y-147.0
X239.02Y-175.841
X241.44Y-97.85
X241.44Y-116.9
X241.44Y-135.95
X241.44Y-155.0
X244.409Y-181.23
X245.756Y-196.047
X249.06Y-97.85
X249.06Y-116.9
X249.06Y-135.95
X249.06Y-155.0
X251.144Y-201.435
T5
X262.32Y-108.2
X264.86Y-108.2
X267.4Y-108.2
X269.94Y-108.2
T6
X258.6Y-86.76
X258.6Y-79.14
X258.6Y-91.84
X258.6Y-96.92
X258.6Y-99.46
X258.6Y-94.38
X258.6Y-102.0
X258.6Y-81.68
X258.6Y-84.22
X258.6Y-89.3
X258.6Y-104.54
X258.6Y-76.6
X273.84Y-104.54
X273.84Y-76.6
X273.84Y-91.84
X273.84Y-96.92
X273.84Y-99.46
X273.84Y-79.14
X273.84Y-86.76
X273.84Y-81.68
X273.84Y-84.22
X273.84Y-89.3
X273.84Y-102.0
X273.84Y-94.38
T7
X159.525Y-102.375
X159.525Y-140.475
X245.25Y-80.087
X245.25Y-160.858
T3
G00X265.75Y-113.3
M15
G01X265.15Y-113.3
M16
G05
G00X265.75Y-117.9
M15
G01X265.15Y-117.9
M16
G05
G00X266.85Y-113.3
M15
G01X266.25Y-113.3
M16
G05
G00X266.85Y-117.9
M15
G01X266.25Y-117.9
M16
G05
G00X270.85Y-113.3
M15
G01X270.25Y-113.3
M16
G05
G00X270.85Y-117.9
M15
G01X270.25Y-117.9
M16
G05
G00X273.85Y-113.3
M15
G01X273.25Y-113.3
M16
G05
G00X273.85Y-117.9
M15
G01X273.25Y-117.9
M16
G05
M30
