0
SECTION
2
HEADER
9
$INSUNITS
70
4
0
ENDSEC
0
SECTION
2
TABLES
0
TABLE
2
LTYPE
0
LTYPE
72
65
70
64
2
CONTINUOUS
3
______
73
0
40
0
0
ENDTAB
0
TABLE
2
LAYER
0
ENDTAB
0
ENDSEC
0
SECTION
2
ENTITIES
0
LINE
8
0
10
139.475
20
-162.525
11
179.575
21
-162.525
0
ARC
8
0
10
179.575
20
-160.525
40
2
50
270
51
360
0
LINE
8
0
10
181.575
20
-160.525
11
181.575
21
-155.525
0
LINE
8
0
10
182.575
20
-154.525
11
198.625
21
-154.525
0
ARC
8
0
10
198.625
20
-152.525
40
2
50
270
51
360
0
LINE
8
0
10
200.625
20
-152.525
11
200.625
21
-147.525
0
LINE
8
0
10
201.625
20
-146.525
11
212.675
21
-146.525
0
LINE
8
0
10
213.675
20
-147.525
11
213.675
21
-152.525
0
ARC
8
0
10
215.675
20
-152.525
40
2
50
180
51
270
0
LINE
8
0
10
215.675
20
-154.525
11
232.725
21
-154.525
0
LINE
8
0
10
257.775
20
-169.8119751
11
257.775
21
-121.9
0
ARC
8
0
10
236.725
20
-74.325
40
2
50
47.5188864
51
90
0
LINE
8
0
10
220.675
20
-72.325
11
236.725
21
-72.325
0
LINE
8
0
10
219.675
20
-71.325
11
219.675
21
-66.325
0
ARC
8
0
10
217.675
20
-66.325
40
2
50
0
51
90
0
LINE
8
0
10
217.675
20
-64.325
11
196.625
21
-64.325
0
ARC
8
0
10
196.625
20
-66.325
40
2
50
90
51
180
0
LINE
8
0
10
194.625
20
-66.325
11
194.625
21
-71.325
0
LINE
8
0
10
177.575
20
-72.325
11
193.625
21
-72.325
0
ARC
8
0
10
177.575
20
-74.325
40
2
50
90
51
180
0
LINE
8
0
10
175.575
20
-74.325
11
175.575
21
-79.325
0
LINE
8
0
10
139.475
20
-80.325
11
174.575
21
-80.325
0
ARC
8
0
10
139.475
20
-82.325
40
2
50
90
51
180
0
LINE
8
0
10
137.475
20
-160.525
11
137.475
21
-82.325
0
ARC
8
0
10
139.475
20
-160.525
40
2
50
180
51
270
0
LINE
8
0
10
228.9511887
20
-176.4142136
11
240.3002525
21
-187.7632774
0
LINE
8
0
10
240.3002525
20
-189.177491
11
235.6863808
21
-193.7913627
0
ARC
8
0
10
237.1005944
20
-195.2055763
40
2
50
135
51
225
0
LINE
8
0
10
235.6863808
20
-196.6197899
11
250.5709785
21
-211.5043876
0
ARC
8
0
10
251.9851921
20
-210.090174
40
2
50
225
51
315
0
LINE
8
0
10
253.3994057
20
-211.5043876
11
268.2840034
21
-196.6197899
0
ARC
8
0
10
266.8697898
20
-195.2055763
40
2
50
315
51
405
0
LINE
8
0
10
268.2840034
20
-193.7913627
11
256.9349396
21
-182.4422989
0
LINE
8
0
10
256.9349396
20
-181.0280853
11
261.5488113
21
-176.4142136
0
ARC
8
0
10
260.1345977
20
-175
40
2
50
315
51
405
0
LINE
8
0
10
261.5488113
20
-173.5857864
11
257.775
21
-169.8119751
0
LINE
8
0
10
232.725
20
-169.8119751
11
228.9511887
21
-173.5857864
0
ARC
8
0
10
230.3654023
20
-175
40
2
50
135
51
225
0
ARC
8
0
10
182.575
20
-155.525
40
1
50
90
51
180
0
ARC
8
0
10
201.625
20
-147.525
40
1
50
90
51
180
0
ARC
8
0
10
212.675
20
-147.525
40
1
50
0
51
90
0
ARC
8
0
10
220.675
20
-71.325
40
1
50
180
51
270
0
ARC
8
0
10
193.625
20
-71.325
40
1
50
270
51
0
0
ARC
8
0
10
174.575
20
-79.325
40
1
50
270
51
0
0
ARC
8
0
10
239.5931457
20
-188.4703842
40
1
50
315
51
45
0
ARC
8
0
10
257.6420464
20
-181.7351921
40
1
50
135
51
225
0
LINE
8
0
10
232.725
20
-169.8119751
11
232.725
21
-154.525
0
LINE
8
0
10
276.825
20
-120.9
11
276.825
21
-73.85
0
LINE
8
0
10
275.825
20
-72.85
11
238.0756943
21
-72.85
0
ARC
8
0
10
275.825
20
-73.85
40
1
50
0
51
90
0
LINE
8
0
10
257.775
20
-121.9
11
275.825
21
-121.9
0
ARC
8
0
10
275.825
20
-120.9
40
1
50
270
51
0
0
ENDSEC
0
EOF